<svg id="svg" version="1.1" xmlns="http://www.w3.org/2000/svg" xmlns:xlink="http://www.w3.org/1999/xlink" width="400" height="354.43037974683546" viewBox="0, 0, 400,354.43037974683546"><g id="svgg"><path id="path0" d="M0.000 75.355 C 0.000 150.473,0.002 150.709,0.709 150.709 C 1.408 150.709,1.419 150.465,1.440 134.309 C 1.566 40.904,2.071 12.500,3.638 10.714 C 3.931 10.380,4.281 9.747,4.415 9.307 C 4.724 8.293,8.258 4.738,9.280 4.413 C 9.705 4.279,10.361 3.881,10.739 3.529 C 12.511 1.877,3.782 1.950,198.759 1.950 C 397.343 1.950,385.017 1.831,387.350 3.775 C 387.901 4.234,388.540 4.611,388.768 4.612 C 389.629 4.616,392.547 8.147,394.029 10.979 L 395.567 13.917 395.816 78.855 C 395.955 115.287,396.241 148.620,396.467 154.787 C 396.689 160.833,397.006 170.966,397.172 177.305 C 397.338 183.644,397.720 197.207,398.021 207.447 C 398.321 217.686,398.571 231.370,398.574 237.855 C 398.581 249.407,398.596 249.645,399.291 249.645 C 399.999 249.645,400.000 249.409,400.000 124.823 L 400.000 0.000 200.000 0.000 L 0.000 0.000 0.000 75.355 M51.610 55.273 C 51.425 55.857,51.328 60.751,51.404 65.666 C 51.424 66.988,52.159 67.595,54.711 68.397 C 55.923 68.778,57.872 69.498,59.043 69.997 C 60.213 70.497,61.474 70.909,61.845 70.914 C 62.216 70.918,63.523 71.396,64.750 71.975 C 65.976 72.555,67.747 73.215,68.685 73.442 C 69.623 73.669,70.949 74.143,71.631 74.495 C 72.314 74.847,73.804 75.393,74.942 75.707 C 76.080 76.021,77.852 76.663,78.879 77.133 C 79.906 77.603,81.368 78.140,82.129 78.327 C 83.892 78.761,89.809 81.256,90.567 81.885 C 91.353 82.538,90.808 83.134,88.713 83.910 C 87.802 84.248,86.633 84.815,86.115 85.170 C 85.598 85.525,85.026 85.816,84.844 85.816 C 84.295 85.816,80.060 87.229,78.546 87.917 C 77.766 88.272,75.931 88.964,74.468 89.455 C 70.115 90.917,68.360 91.539,66.489 92.281 C 65.514 92.669,63.520 93.374,62.057 93.850 C 60.594 94.326,58.839 95.006,58.156 95.363 C 57.473 95.719,56.356 96.130,55.674 96.275 C 51.761 97.111,51.355 97.790,51.367 103.477 C 51.379 109.151,51.389 109.334,51.726 109.864 C 52.044 110.367,58.747 108.360,60.427 107.259 C 60.874 106.967,62.144 106.491,63.250 106.203 C 64.355 105.915,66.015 105.303,66.939 104.843 C 67.862 104.383,69.415 103.812,70.390 103.576 C 71.365 103.339,72.521 102.913,72.959 102.630 C 73.397 102.346,74.913 101.711,76.328 101.219 C 77.743 100.727,79.347 100.078,79.892 99.778 C 80.438 99.477,81.874 98.944,83.084 98.593 C 84.294 98.241,86.105 97.537,87.108 97.027 C 88.112 96.517,89.206 96.099,89.539 96.099 C 89.872 96.099,90.966 95.686,91.970 95.181 C 92.973 94.677,94.977 93.877,96.422 93.405 C 97.867 92.932,99.243 92.385,99.479 92.189 C 99.716 91.993,100.767 91.582,101.816 91.275 C 104.195 90.578,107.833 88.790,108.422 88.027 C 109.251 86.954,109.024 77.559,108.151 76.768 C 107.318 76.015,102.868 73.760,102.213 73.759 C 101.967 73.759,100.273 73.121,98.447 72.340 C 96.621 71.560,94.846 70.922,94.502 70.922 C 94.159 70.922,93.380 70.619,92.772 70.249 C 92.164 69.879,90.550 69.208,89.184 68.758 C 87.819 68.308,86.287 67.659,85.780 67.316 C 85.272 66.974,84.075 66.521,83.120 66.310 C 82.165 66.100,80.186 65.397,78.723 64.749 C 74.717 62.974,72.431 62.070,69.581 61.133 C 68.160 60.667,66.644 60.062,66.212 59.789 C 65.779 59.516,64.468 59.022,63.298 58.692 C 62.128 58.361,60.213 57.644,59.043 57.098 C 57.872 56.551,55.957 55.827,54.787 55.489 C 53.617 55.150,52.475 54.803,52.248 54.716 C 52.022 54.629,51.735 54.880,51.610 55.273 M112.190 117.640 C 109.983 119.123,109.538 126.783,111.573 128.271 C 112.339 128.831,165.078 128.933,165.957 128.376 C 166.679 127.919,166.742 118.727,166.029 118.014 C 165.511 117.497,112.947 117.132,112.190 117.640 M99.291 216.312 C 98.307 217.295,98.162 261.586,99.139 262.563 C 99.932 263.357,108.346 263.356,109.397 262.563 C 110.062 262.061,110.117 261.501,110.284 253.541 C 110.519 242.283,109.080 243.469,122.667 243.336 L 133.259 243.233 134.272 244.103 L 135.284 244.973 135.461 253.544 C 135.626 261.507,135.687 262.151,136.327 262.618 C 137.230 263.277,146.090 263.343,146.738 262.695 C 147.461 261.972,147.339 217.431,146.611 216.391 C 145.818 215.259,138.435 215.198,136.613 216.308 C 135.293 217.113,135.377 216.455,135.458 225.418 C 135.547 235.226,136.189 234.752,122.813 234.752 L 112.417 234.752 111.439 233.656 L 110.461 232.559 110.284 224.936 L 110.106 217.313 109.111 216.458 C 107.713 215.256,100.455 215.148,99.291 216.312 M155.664 216.249 C 154.487 217.201,154.244 221.654,155.279 223.296 L 155.994 224.428 163.441 224.537 C 168.954 224.617,171.008 224.765,171.348 225.106 C 171.709 225.467,171.847 229.509,171.986 243.757 C 172.129 258.457,172.257 262.061,172.650 262.535 C 173.315 263.336,182.453 263.406,183.532 262.617 C 184.195 262.133,184.224 261.463,184.321 244.303 C 184.419 227.051,184.445 226.461,185.143 225.480 L 185.864 224.468 192.552 224.468 C 199.672 224.468,199.550 224.495,200.863 222.621 C 201.275 222.032,201.493 221.961,201.883 222.285 C 204.216 224.221,205.403 224.468,212.368 224.468 C 221.607 224.468,220.566 222.037,220.573 243.640 C 220.577 257.051,220.683 261.379,221.026 262.057 C 221.584 263.161,231.385 263.655,232.242 262.622 C 232.566 262.232,232.663 257.795,232.637 244.511 C 232.595 222.210,231.571 224.484,241.667 224.468 C 250.238 224.454,250.776 224.085,250.189 218.608 C 249.852 215.453,251.052 215.607,226.773 215.607 C 204.693 215.607,204.093 215.651,202.449 217.411 C 201.362 218.576,201.064 218.679,201.064 217.892 C 201.064 217.590,200.672 216.952,200.193 216.473 L 199.323 215.603 177.892 215.603 C 157.690 215.603,156.416 215.640,155.664 216.249 M258.843 216.046 C 257.843 216.847,257.811 217.565,257.796 239.603 C 257.778 265.891,257.113 263.121,263.440 263.121 C 269.253 263.121,268.936 263.482,269.093 256.675 L 269.214 251.401 270.342 250.929 C 271.076 250.623,273.820 250.391,278.199 250.264 C 283.575 250.109,285.393 249.925,287.234 249.350 C 288.502 248.954,290.455 248.465,291.576 248.264 C 292.818 248.040,294.376 247.408,295.572 246.644 C 296.650 245.954,297.624 245.390,297.736 245.390 C 298.096 245.390,301.159 241.828,301.802 240.662 C 303.588 237.422,303.662 237.128,303.691 233.156 C 303.721 229.028,303.259 226.913,302.081 225.784 C 301.716 225.435,301.418 224.924,301.418 224.647 C 301.418 224.079,297.709 220.213,297.163 220.213 C 296.968 220.213,296.473 219.878,296.064 219.468 C 295.652 219.056,293.312 218.069,290.833 217.261 L 286.348 215.799 272.872 215.701 C 262.499 215.625,259.270 215.705,258.843 216.046 M285.197 225.177 C 292.948 227.207,293.924 236.527,286.782 240.314 C 285.038 241.238,271.525 241.250,270.112 240.329 L 269.149 239.700 269.149 232.863 L 269.149 226.026 270.479 225.255 C 272.376 224.156,281.120 224.109,285.197 225.177 M398.582 337.696 C 398.582 341.659,395.705 346.873,391.753 350.071 C 389.886 351.583,386.543 353.191,385.270 353.191 C 384.985 353.191,384.752 353.511,384.752 353.901 C 384.752 354.588,384.988 354.610,392.376 354.610 L 400.000 354.610 400.000 345.745 C 400.000 337.116,399.981 336.879,399.291 336.879 C 398.787 336.879,398.582 337.116,398.582 337.696 M0.000 349.823 L 0.000 354.610 6.560 354.610 C 12.884 354.610,13.121 354.584,13.121 353.901 C 13.121 353.432,12.884 353.191,12.425 353.191 C 9.922 353.191,5.059 350.036,2.698 346.880 C 0.361 343.755,0.000 344.149,0.000 349.823 " stroke="none" fill="#d5dde0" fill-rule="evenodd"></path><path id="path1" d="M74.202 157.686 C 73.763 157.992,73.404 158.493,73.404 158.799 C 73.404 159.104,72.801 160.401,72.064 161.681 C 69.783 165.637,69.548 166.072,68.502 168.262 C 67.942 169.433,67.221 170.609,66.899 170.877 C 66.576 171.144,66.312 171.609,66.312 171.909 C 66.312 172.381,65.468 174.003,62.673 178.901 C 62.340 179.486,61.557 181.002,60.933 182.270 C 60.310 183.537,59.686 184.654,59.546 184.752 C 59.406 184.849,58.814 185.972,58.231 187.247 C 57.647 188.522,56.913 189.778,56.599 190.039 C 56.285 190.299,56.028 190.790,56.028 191.129 C 56.028 191.468,55.613 192.357,55.106 193.105 C 54.598 193.853,53.734 195.351,53.185 196.434 C 52.636 197.518,51.540 199.601,50.750 201.064 C 49.960 202.527,48.923 204.521,48.446 205.496 C 47.970 206.472,47.167 207.819,46.662 208.491 C 46.158 209.163,45.745 209.982,45.745 210.313 C 45.745 210.643,45.175 211.741,44.480 212.752 C 43.784 213.763,42.899 215.257,42.513 216.072 C 42.127 216.887,41.123 218.830,40.283 220.390 C 39.443 221.950,38.338 224.073,37.828 225.107 C 37.319 226.141,36.577 227.400,36.181 227.903 C 35.785 228.407,35.461 229.041,35.461 229.312 C 35.461 229.583,34.902 230.616,34.220 231.609 C 33.537 232.601,32.979 233.601,32.979 233.830 C 32.979 234.059,32.506 234.799,31.929 235.474 C 30.646 236.976,30.450 239.244,31.520 240.212 C 31.888 240.545,32.613 241.761,33.131 242.915 C 33.648 244.068,34.233 245.111,34.431 245.233 C 34.628 245.355,35.192 246.278,35.683 247.284 C 36.174 248.290,37.197 250.230,37.955 251.596 C 39.668 254.680,41.135 257.711,41.135 258.166 C 41.135 258.356,41.296 258.511,41.494 258.511 C 41.691 258.511,42.255 259.420,42.747 260.531 C 43.238 261.643,44.007 263.039,44.456 263.634 C 44.905 264.229,45.450 265.234,45.667 265.868 C 45.884 266.501,46.444 267.538,46.910 268.173 C 47.377 268.807,47.970 269.885,48.229 270.567 C 48.487 271.250,48.894 272.048,49.132 272.340 C 49.371 272.633,50.080 273.910,50.709 275.177 C 51.338 276.445,52.055 277.722,52.303 278.014 C 52.550 278.307,52.875 278.945,53.024 279.433 C 53.172 279.920,53.909 281.294,54.661 282.485 C 55.413 283.676,56.028 284.863,56.028 285.122 C 56.028 285.381,56.316 285.922,56.667 286.325 C 57.018 286.727,57.688 287.934,58.156 289.007 C 58.624 290.080,59.268 291.277,59.588 291.667 C 59.907 292.057,60.380 292.934,60.638 293.617 C 60.895 294.300,61.488 295.377,61.955 296.012 C 62.422 296.646,62.979 297.683,63.194 298.317 C 63.408 298.950,64.106 300.266,64.744 301.241 C 65.381 302.216,66.011 303.446,66.143 303.975 C 66.274 304.503,66.612 305.127,66.894 305.361 C 67.416 305.794,69.149 309.313,69.149 309.940 C 69.149 310.129,69.290 310.284,69.462 310.284 C 69.634 310.284,70.175 311.128,70.663 312.160 C 71.152 313.191,71.968 314.650,72.478 315.401 C 72.987 316.151,73.404 317.038,73.404 317.370 C 73.404 319.288,63.427 319.149,201.296 319.149 L 327.891 319.149 328.662 318.328 C 329.086 317.877,329.433 317.260,329.433 316.958 C 329.433 316.655,329.730 316.027,330.094 315.562 C 330.458 315.097,331.194 313.839,331.730 312.766 C 332.266 311.693,332.907 310.576,333.155 310.284 C 333.402 309.991,333.726 309.353,333.875 308.865 C 334.023 308.378,334.760 307.004,335.512 305.813 C 336.264 304.621,336.879 303.445,336.879 303.198 C 336.879 302.951,337.518 301.793,338.298 300.625 C 339.078 299.457,339.716 298.219,339.716 297.875 C 339.716 297.531,339.980 297.031,340.303 296.763 C 340.625 296.496,341.355 295.240,341.923 293.972 C 342.492 292.705,343.159 291.428,343.406 291.135 C 343.653 290.843,344.072 290.044,344.337 289.362 C 344.602 288.679,345.311 287.323,345.913 286.348 C 347.431 283.890,348.026 282.825,349.480 279.965 C 350.926 277.120,352.876 273.470,354.595 270.390 C 356.624 266.755,358.441 263.384,359.533 261.230 C 360.109 260.093,360.803 258.896,361.075 258.571 C 361.347 258.245,361.869 257.261,362.235 256.383 C 362.601 255.505,363.070 254.569,363.277 254.302 C 363.634 253.841,364.521 252.174,367.013 247.277 C 367.626 246.073,368.358 244.896,368.638 244.663 C 368.919 244.430,369.149 244.050,369.149 243.819 C 369.149 243.587,369.707 242.470,370.390 241.337 C 371.874 238.873,371.987 237.316,370.801 235.703 C 370.345 235.082,369.760 234.016,369.502 233.333 C 369.243 232.651,368.789 231.807,368.492 231.458 C 368.194 231.110,367.502 229.953,366.954 228.887 C 365.040 225.167,363.979 223.218,363.199 221.986 C 362.766 221.303,362.233 220.186,362.013 219.504 C 361.794 218.821,361.342 217.943,361.008 217.553 C 360.675 217.163,359.995 215.961,359.498 214.883 C 359.000 213.804,358.346 212.716,358.043 212.465 C 357.740 212.213,357.390 211.539,357.264 210.967 C 357.138 210.394,356.496 209.142,355.837 208.183 C 355.177 207.225,354.536 206.035,354.412 205.540 C 354.287 205.044,353.955 204.448,353.673 204.214 C 353.392 203.980,352.767 202.896,352.285 201.806 C 351.803 200.715,351.253 199.583,351.062 199.291 C 350.871 198.998,350.145 197.643,349.447 196.278 C 348.750 194.914,347.970 193.558,347.713 193.264 C 347.457 192.971,347.125 192.332,346.977 191.844 C 346.828 191.356,346.344 190.479,345.902 189.894 C 345.459 189.309,344.688 187.952,344.188 186.879 C 343.689 185.807,343.120 184.690,342.925 184.397 C 342.730 184.105,342.217 183.067,341.784 182.092 C 341.351 181.117,340.871 180.232,340.718 180.125 C 340.564 180.018,339.886 178.797,339.212 177.411 C 338.537 176.025,337.828 174.793,337.636 174.674 C 337.443 174.556,337.091 173.868,336.853 173.147 C 336.615 172.425,335.973 171.218,335.427 170.464 C 334.881 169.710,334.246 168.507,334.016 167.791 C 333.786 167.075,333.366 166.223,333.082 165.898 C 332.798 165.572,332.061 164.314,331.443 163.102 C 329.605 159.497,328.928 158.283,328.414 157.672 C 327.681 156.798,75.454 156.813,74.202 157.686 M327.163 159.048 C 327.618 159.538,328.159 160.568,328.366 161.336 C 328.573 162.105,329.149 163.217,329.646 163.808 C 330.144 164.400,330.711 165.464,330.907 166.173 C 331.103 166.882,331.614 167.802,332.043 168.217 C 332.932 169.078,333.688 170.642,333.688 171.622 C 333.688 171.989,334.054 172.580,334.502 172.935 C 334.949 173.291,335.685 174.574,336.136 175.786 C 336.649 177.163,337.209 178.071,337.628 178.204 C 337.996 178.321,338.298 178.731,338.298 179.116 C 338.298 180.003,339.531 182.439,340.440 183.348 C 340.822 183.730,341.135 184.402,341.136 184.840 C 341.138 185.746,342.371 187.943,342.877 187.943 C 343.061 187.943,343.465 188.813,343.774 189.877 C 344.083 190.941,344.621 192.018,344.968 192.271 C 345.315 192.524,345.874 193.461,346.210 194.355 C 346.546 195.248,347.146 196.328,347.543 196.754 C 347.939 197.179,348.475 198.229,348.733 199.086 C 348.991 199.943,349.624 201.098,350.140 201.652 C 350.657 202.206,351.177 203.263,351.296 204.001 C 351.427 204.813,351.851 205.608,352.370 206.016 C 352.842 206.387,353.525 207.535,353.888 208.565 C 354.251 209.596,354.846 210.684,355.209 210.982 C 355.573 211.281,356.078 212.223,356.331 213.075 C 356.585 213.928,357.173 215.007,357.639 215.472 C 358.104 215.938,358.662 216.974,358.877 217.775 C 359.093 218.575,359.656 219.618,360.130 220.091 C 360.603 220.564,361.166 221.650,361.381 222.503 C 361.596 223.357,362.157 224.417,362.627 224.859 C 363.098 225.301,363.648 226.274,363.849 227.021 C 364.050 227.767,364.656 228.895,365.196 229.526 C 365.736 230.157,366.373 231.346,366.610 232.168 C 366.848 232.990,367.329 233.868,367.680 234.118 C 369.585 235.480,369.515 241.574,367.586 242.314 C 367.297 242.425,366.866 243.202,366.627 244.042 C 366.388 244.881,365.822 245.974,365.369 246.470 C 364.916 246.966,364.295 248.107,363.989 249.005 C 363.683 249.903,363.130 250.912,362.759 251.247 C 362.389 251.582,361.824 252.644,361.505 253.607 C 361.185 254.570,360.540 255.772,360.071 256.277 C 359.602 256.783,359.054 257.810,358.852 258.559 C 358.650 259.309,358.104 260.303,357.639 260.769 C 357.173 261.235,356.593 262.313,356.350 263.166 C 356.107 264.019,355.599 264.969,355.222 265.278 C 354.844 265.587,354.232 266.698,353.863 267.747 C 353.493 268.796,352.808 269.980,352.339 270.377 C 351.853 270.789,351.389 271.673,351.258 272.437 C 351.132 273.172,350.588 274.289,350.049 274.919 C 349.511 275.549,348.874 276.742,348.634 277.571 C 348.395 278.400,348.075 279.078,347.923 279.078 C 347.560 279.078,346.099 281.692,346.099 282.343 C 346.099 282.622,345.637 283.369,345.072 284.002 C 344.507 284.635,343.866 285.861,343.648 286.725 C 343.430 287.590,343.108 288.298,342.932 288.298 C 342.394 288.298,341.135 290.628,341.135 291.623 C 341.135 292.139,340.803 292.838,340.397 293.177 C 339.497 293.929,338.298 296.176,338.298 297.108 C 338.298 297.484,337.939 298.028,337.500 298.318 C 337.061 298.609,336.402 299.703,336.036 300.751 C 335.670 301.799,335.082 302.858,334.730 303.104 C 334.379 303.351,333.846 304.396,333.546 305.427 C 333.246 306.459,332.605 307.674,332.122 308.128 C 331.638 308.583,331.134 309.448,331.002 310.050 C 330.869 310.653,330.316 311.710,329.771 312.400 C 329.227 313.089,328.586 314.325,328.346 315.147 C 328.106 315.969,327.562 316.968,327.137 317.367 L 326.365 318.092 201.268 318.092 L 76.171 318.092 75.421 317.138 C 75.008 316.613,74.398 315.378,74.064 314.394 C 73.731 313.409,73.162 312.361,72.801 312.064 C 72.439 311.768,71.951 310.877,71.716 310.085 C 71.481 309.293,70.884 308.265,70.389 307.801 C 69.867 307.310,69.398 306.381,69.271 305.584 C 69.141 304.773,68.649 303.810,68.068 303.229 C 67.528 302.689,66.888 301.541,66.646 300.680 C 66.405 299.818,65.860 298.794,65.435 298.404 C 65.010 298.014,64.371 296.906,64.014 295.942 C 63.657 294.978,62.990 293.843,62.533 293.419 C 62.076 292.996,61.702 292.383,61.702 292.058 C 61.702 291.151,60.796 289.185,60.033 288.437 C 59.656 288.068,59.160 287.110,58.930 286.308 C 58.700 285.505,58.129 284.467,57.661 283.999 C 57.193 283.531,56.631 282.481,56.411 281.664 C 56.191 280.848,55.628 279.879,55.160 279.511 C 54.660 279.117,54.203 278.272,54.050 277.459 C 53.903 276.671,53.357 275.643,52.782 275.068 C 52.227 274.513,51.680 273.632,51.567 273.111 C 51.180 271.333,50.634 270.237,50.039 270.048 C 49.703 269.941,49.238 269.130,48.965 268.175 C 48.701 267.248,48.130 266.090,47.696 265.603 C 47.262 265.115,46.606 263.856,46.238 262.805 C 45.870 261.754,45.210 260.659,44.770 260.371 C 44.331 260.083,43.972 259.526,43.972 259.132 C 43.972 258.332,42.657 256.000,41.966 255.575 C 41.720 255.424,41.414 254.706,41.287 253.980 C 41.160 253.254,40.580 252.051,39.997 251.307 C 39.414 250.564,38.776 249.369,38.578 248.653 C 38.380 247.937,37.942 247.158,37.603 246.921 C 37.264 246.683,36.642 245.542,36.220 244.384 C 35.747 243.087,35.208 242.215,34.816 242.113 C 33.082 241.659,33.085 235.463,34.820 234.247 C 35.193 233.986,35.775 233.041,36.115 232.146 C 36.455 231.250,37.066 230.135,37.472 229.667 C 37.879 229.199,38.416 228.197,38.665 227.440 C 38.915 226.683,39.548 225.505,40.072 224.823 C 40.597 224.140,41.216 222.903,41.449 222.074 C 41.682 221.246,42.022 220.567,42.206 220.567 C 42.646 220.567,43.972 217.946,43.972 217.076 C 43.972 216.701,44.331 216.158,44.770 215.870 C 45.210 215.582,45.876 214.487,46.251 213.436 C 46.626 212.385,47.204 211.330,47.535 211.093 C 47.867 210.855,48.412 209.822,48.747 208.798 C 49.082 207.773,49.735 206.584,50.198 206.155 C 50.661 205.727,51.220 204.658,51.441 203.781 C 51.662 202.904,52.228 201.824,52.698 201.382 C 53.169 200.940,53.728 199.932,53.941 199.142 C 54.153 198.353,54.790 197.180,55.355 196.536 C 55.920 195.892,56.383 195.074,56.383 194.717 C 56.383 194.361,56.862 193.466,57.447 192.730 C 58.033 191.993,58.698 190.734,58.926 189.933 C 59.153 189.131,59.615 188.236,59.951 187.943 C 60.746 187.251,61.702 185.334,61.702 184.431 C 61.702 184.040,62.075 183.347,62.531 182.891 C 62.987 182.435,63.662 181.272,64.031 180.306 C 64.400 179.340,65.042 178.229,65.457 177.838 C 65.873 177.448,66.410 176.410,66.651 175.532 C 66.891 174.654,67.481 173.617,67.960 173.227 C 68.468 172.813,68.974 171.881,69.174 170.988 C 69.363 170.146,69.917 169.029,70.406 168.505 C 70.895 167.982,71.483 166.915,71.714 166.135 C 71.944 165.355,72.408 164.515,72.744 164.270 C 73.080 164.025,73.689 162.934,74.096 161.846 C 74.503 160.758,75.112 159.488,75.450 159.023 L 76.064 158.178 201.200 158.167 L 326.337 158.156 327.163 159.048 M84.948 169.761 C 84.034 169.994,81.328 172.800,81.023 173.831 C 80.890 174.279,80.169 175.683,79.420 176.950 C 78.671 178.218,77.951 179.696,77.819 180.235 C 77.688 180.774,77.380 181.332,77.134 181.476 C 76.591 181.794,75.177 184.520,75.177 185.249 C 75.177 185.539,74.868 185.992,74.491 186.256 C 74.114 186.520,73.471 187.582,73.064 188.616 C 72.657 189.650,71.928 191.013,71.445 191.646 C 70.962 192.279,70.567 193.049,70.567 193.357 C 70.567 193.665,70.191 194.368,69.731 194.920 C 68.707 196.146,67.730 198.005,67.730 198.727 C 67.730 199.022,67.425 199.549,67.051 199.898 C 66.677 200.246,66.026 201.410,65.605 202.482 C 65.185 203.555,64.539 204.756,64.170 205.152 C 63.801 205.548,63.256 206.559,62.960 207.401 C 62.663 208.242,62.023 209.401,61.539 209.977 C 61.054 210.553,60.460 211.684,60.218 212.490 C 59.977 213.296,59.453 214.307,59.054 214.738 C 58.655 215.168,58.111 216.137,57.845 216.891 C 57.579 217.645,57.075 218.582,56.724 218.972 C 56.372 219.362,55.809 220.399,55.471 221.277 C 55.134 222.154,54.467 223.401,53.990 224.046 C 53.513 224.692,52.976 225.750,52.797 226.398 C 52.619 227.045,51.996 228.174,51.414 228.906 C 50.832 229.638,50.192 230.849,49.990 231.596 C 49.789 232.344,49.411 233.080,49.151 233.233 C 46.690 234.677,46.881 241.470,49.442 243.596 C 49.749 243.850,50.000 244.342,50.000 244.689 C 50.000 245.035,50.560 246.151,51.245 247.168 C 51.929 248.186,52.591 249.438,52.715 249.952 C 52.839 250.466,53.276 251.354,53.686 251.925 C 54.451 252.989,55.947 255.760,57.624 259.220 C 58.144 260.293,58.856 261.489,59.206 261.879 C 59.556 262.270,60.040 263.227,60.283 264.007 C 60.525 264.787,61.097 265.827,61.554 266.317 C 62.010 266.807,62.623 267.887,62.916 268.716 C 63.208 269.546,63.827 270.740,64.290 271.371 C 64.753 272.002,65.415 273.288,65.761 274.228 C 66.107 275.169,66.611 276.023,66.879 276.127 C 67.148 276.230,67.532 276.921,67.731 277.663 C 67.931 278.405,68.651 279.821,69.331 280.810 C 70.011 281.798,70.567 282.828,70.567 283.099 C 70.567 283.369,71.056 284.205,71.653 284.956 C 72.250 285.708,72.925 287.020,73.153 287.873 C 73.381 288.726,73.833 289.566,74.157 289.740 C 74.481 289.913,75.039 290.871,75.398 291.870 C 75.757 292.868,76.390 294.029,76.804 294.449 C 77.219 294.869,77.762 295.851,78.011 296.631 C 78.260 297.411,78.925 298.684,79.488 299.460 C 80.052 300.236,80.669 301.451,80.860 302.161 C 81.079 302.974,81.856 304.057,82.964 305.094 L 84.721 306.738 198.919 306.738 L 313.116 306.738 314.709 305.167 C 315.638 304.252,316.609 302.819,317.037 301.734 C 317.440 300.710,317.987 299.701,318.251 299.492 C 318.514 299.284,319.090 298.236,319.530 297.163 C 319.970 296.090,320.629 294.876,320.995 294.465 C 321.361 294.054,321.815 293.160,322.003 292.479 C 322.191 291.797,322.744 290.778,323.231 290.212 C 323.719 289.647,324.383 288.466,324.707 287.589 C 325.031 286.711,325.556 285.674,325.875 285.284 C 326.194 284.894,326.833 283.737,327.295 282.713 C 327.757 281.689,328.261 280.851,328.415 280.851 C 328.569 280.851,328.979 280.048,329.328 279.066 C 329.677 278.085,330.315 276.871,330.746 276.369 C 331.178 275.867,331.802 274.715,332.134 273.810 C 332.466 272.904,332.949 271.987,333.208 271.773 C 333.467 271.558,334.102 270.441,334.619 269.291 C 335.136 268.140,335.835 266.879,336.173 266.489 C 336.510 266.099,336.882 265.372,337.000 264.873 C 337.117 264.373,337.614 263.416,338.103 262.745 C 338.592 262.074,339.172 261.126,339.392 260.638 C 340.094 259.079,340.811 257.685,342.217 255.142 C 342.972 253.777,344.021 251.782,344.549 250.709 C 345.077 249.637,345.859 248.280,346.287 247.695 C 346.715 247.110,347.243 246.101,347.460 245.452 C 347.676 244.804,348.251 243.801,348.736 243.225 C 350.947 240.598,350.883 235.483,348.607 232.880 C 348.058 232.252,347.498 231.230,347.363 230.610 C 347.228 229.989,346.863 229.271,346.551 229.014 C 346.240 228.757,345.598 227.668,345.125 226.596 C 344.652 225.523,343.888 224.149,343.428 223.541 C 342.968 222.934,342.489 222.029,342.363 221.530 C 342.238 221.031,341.591 219.778,340.926 218.746 C 340.261 217.713,339.716 216.607,339.716 216.287 C 339.716 215.968,339.357 215.315,338.918 214.837 C 338.035 213.874,336.879 211.600,336.879 210.824 C 336.879 210.549,336.587 210.115,336.229 209.861 C 335.871 209.606,335.283 208.599,334.922 207.624 C 334.561 206.649,333.816 205.327,333.267 204.686 C 332.719 204.046,332.270 203.224,332.270 202.860 C 332.270 202.496,331.732 201.400,331.075 200.423 C 330.417 199.447,329.708 198.154,329.498 197.552 C 329.287 196.949,328.708 195.922,328.210 195.269 C 327.712 194.616,327.305 193.929,327.305 193.742 C 327.305 193.554,326.858 192.692,326.311 191.825 C 325.764 190.958,325.035 189.541,324.692 188.676 C 324.348 187.812,323.685 186.650,323.217 186.094 C 322.750 185.539,322.209 184.508,322.014 183.804 C 321.820 183.100,321.364 182.187,321.002 181.776 C 320.640 181.365,320.046 180.310,319.681 179.433 C 319.316 178.555,318.750 177.518,318.423 177.128 C 318.096 176.738,317.422 175.541,316.924 174.468 C 316.427 173.395,315.374 171.840,314.585 171.011 L 313.149 169.504 199.394 169.545 C 136.828 169.567,85.328 169.665,84.948 169.761 M110.744 215.345 L 111.702 215.974 111.713 223.856 C 111.728 234.132,110.316 233.011,123.093 232.895 L 133.511 232.801 133.688 224.645 C 133.916 214.138,133.598 214.538,141.744 214.541 C 149.779 214.544,149.239 212.625,149.167 240.896 L 149.113 262.111 147.754 263.357 L 146.395 264.603 141.194 264.482 C 133.320 264.300,133.700 264.850,133.693 253.611 C 133.686 243.171,135.035 244.326,122.851 244.326 L 112.748 244.326 112.314 245.301 C 112.016 245.969,111.865 248.872,111.834 254.518 C 111.775 265.046,112.040 264.744,103.077 264.482 C 99.114 264.366,98.912 264.323,97.968 263.378 L 96.986 262.395 96.986 239.502 L 96.986 216.608 98.172 215.549 L 99.358 214.489 104.572 214.603 C 108.835 214.696,109.961 214.831,110.744 215.345 M250.493 215.281 C 251.880 216.372,251.921 223.468,250.549 224.948 L 249.679 225.887 242.481 225.911 C 238.523 225.925,234.998 226.049,234.649 226.187 C 234.053 226.422,234.011 227.524,233.940 244.632 L 233.865 262.827 232.842 263.708 C 231.834 264.574,231.738 264.586,226.349 264.475 C 218.713 264.317,219.522 266.657,219.506 244.681 C 219.499 234.832,219.375 226.589,219.232 226.364 C 219.028 226.044,205.070 225.431,201.596 225.590 C 201.401 225.599,197.814 225.679,193.625 225.767 C 188.271 225.880,185.930 226.053,185.741 226.350 C 185.593 226.583,185.469 234.927,185.466 244.892 C 185.460 266.739,186.312 264.310,178.596 264.481 C 173.532 264.593,173.166 264.555,172.249 263.834 L 171.277 263.069 171.277 244.824 L 171.277 226.578 170.367 226.232 C 169.867 226.042,166.276 225.887,162.388 225.887 C 153.381 225.887,153.242 225.770,153.604 218.586 C 153.833 214.067,147.938 214.554,202.474 214.554 C 249.433 214.553,249.570 214.555,250.493 215.281 M287.730 214.907 C 289.076 215.101,290.592 215.489,291.099 215.769 C 292.897 216.760,293.454 216.978,294.699 217.179 C 295.391 217.290,296.548 217.899,297.269 218.531 C 297.991 219.163,299.231 220.228,300.025 220.898 C 300.820 221.567,301.780 222.724,302.160 223.468 C 302.540 224.213,303.002 224.823,303.186 224.823 C 305.171 224.823,305.428 239.101,303.472 240.734 C 303.091 241.052,302.476 241.899,302.105 242.616 C 301.734 243.333,301.147 244.010,300.801 244.120 C 300.454 244.230,300.013 244.666,299.820 245.088 C 299.626 245.511,298.988 246.111,298.402 246.421 C 297.816 246.732,296.999 247.324,296.587 247.737 C 296.175 248.150,294.979 248.689,293.930 248.935 C 292.880 249.180,291.144 249.790,290.071 250.291 C 288.192 251.168,287.821 251.207,279.965 251.350 C 270.080 251.531,270.922 250.977,270.922 257.299 C 270.922 264.377,270.477 264.743,262.196 264.483 C 258.758 264.375,258.206 264.267,257.181 263.497 L 256.028 262.633 256.028 239.534 L 256.028 216.436 256.826 215.710 C 257.265 215.311,257.863 214.896,258.156 214.789 C 259.112 214.440,285.219 214.544,287.730 214.907 M271.348 226.312 C 271.048 226.611,270.922 228.610,270.922 233.037 C 270.922 240.818,270.225 240.194,278.718 240.018 C 285.703 239.873,286.039 239.765,288.988 236.722 C 290.679 234.977,290.889 229.078,289.259 229.078 C 289.023 229.078,288.404 228.544,287.883 227.892 C 286.433 226.074,272.880 224.779,271.348 226.312 " stroke="none" fill="#2268ad" fill-rule="evenodd"></path><path id="path2" d="M16.489 3.942 C 10.173 4.861,6.631 7.866,4.700 13.945 L 3.779 16.844 3.511 87.411 C 3.364 126.223,3.076 197.713,2.872 246.277 C 2.492 336.386,2.505 337.612,3.876 340.235 C 4.280 341.007,4.610 341.836,4.610 342.076 C 4.610 343.170,8.576 346.762,11.262 348.100 L 14.007 349.468 198.759 349.468 L 383.511 349.468 386.240 348.148 C 390.772 345.955,393.567 342.350,394.768 337.148 C 395.076 335.813,395.068 314.684,394.736 250.934 C 394.494 204.490,394.198 132.899,394.080 91.844 C 393.873 20.495,393.835 17.114,393.208 15.281 C 392.848 14.227,392.553 13.120,392.553 12.822 C 392.553 9.225,386.685 4.738,380.882 3.898 C 377.893 3.466,19.468 3.509,16.489 3.942 M56.185 53.856 C 56.586 54.219,58.046 54.853,59.429 55.265 C 60.812 55.677,62.353 56.337,62.854 56.731 C 63.355 57.124,64.158 57.447,64.639 57.447 C 65.812 57.447,68.185 58.307,69.402 59.174 C 69.945 59.561,71.348 60.063,72.518 60.289 C 73.688 60.515,75.204 61.067,75.887 61.515 C 76.569 61.963,78.267 62.666,79.660 63.078 C 81.053 63.490,82.285 64.067,82.397 64.360 C 82.510 64.654,82.838 64.894,83.127 64.894 C 84.538 64.894,87.352 65.750,88.499 66.529 C 89.205 67.008,90.757 67.627,91.947 67.904 C 93.137 68.182,94.518 68.705,95.016 69.066 C 95.514 69.427,97.039 70.014,98.404 70.370 C 99.770 70.727,101.206 71.305,101.596 71.655 C 101.986 72.005,103.381 72.561,104.696 72.890 C 109.080 73.988,110.178 75.348,110.515 80.102 C 111.095 88.270,110.079 90.572,105.319 91.874 C 103.856 92.274,102.340 92.890,101.950 93.243 C 101.560 93.596,100.363 94.082,99.291 94.323 C 97.320 94.765,96.924 94.915,94.681 96.062 C 93.998 96.411,92.642 96.910,91.667 97.172 C 90.691 97.433,89.495 97.928,89.007 98.272 C 88.520 98.617,87.090 99.159,85.830 99.478 C 84.569 99.797,83.121 100.356,82.610 100.719 C 82.100 101.082,80.578 101.654,79.228 101.988 C 77.878 102.323,76.657 102.789,76.515 103.025 C 76.174 103.592,74.781 104.132,72.042 104.758 C 70.806 105.040,69.609 105.499,69.383 105.778 C 69.157 106.057,67.655 106.656,66.046 107.109 C 64.437 107.563,63.121 108.044,63.121 108.179 C 63.121 108.509,61.559 109.107,59.397 109.606 C 58.422 109.831,57.066 110.387,56.383 110.840 C 51.397 114.156,50.203 112.916,50.081 104.297 C 49.969 96.426,49.999 96.326,52.643 95.557 C 53.697 95.250,54.939 94.702,55.402 94.338 C 55.865 93.973,57.416 93.433,58.850 93.136 C 60.283 92.839,61.551 92.451,61.668 92.273 C 62.051 91.689,63.391 91.144,65.844 90.576 C 67.174 90.268,68.529 89.776,68.854 89.483 C 69.180 89.190,70.695 88.637,72.223 88.256 C 73.750 87.874,75.718 87.188,76.596 86.732 C 77.473 86.275,79.069 85.702,80.142 85.459 C 81.215 85.215,82.340 84.800,82.644 84.537 C 82.947 84.273,84.371 83.674,85.807 83.206 L 88.418 82.355 86.442 81.780 C 85.355 81.464,84.312 81.206,84.124 81.206 C 83.937 81.206,83.403 80.916,82.938 80.563 C 82.473 80.209,80.742 79.565,79.092 79.131 C 77.441 78.698,75.821 78.098,75.491 77.800 C 75.161 77.501,73.810 77.031,72.489 76.754 C 71.167 76.478,69.506 75.868,68.798 75.399 C 68.089 74.930,66.561 74.354,65.403 74.120 C 64.245 73.886,62.787 73.400,62.162 73.040 C 61.538 72.679,59.721 72.032,58.125 71.601 C 56.529 71.171,54.970 70.523,54.661 70.161 C 54.351 69.799,53.726 69.504,53.272 69.504 C 52.184 69.504,50.497 68.613,50.220 67.892 C 49.648 66.400,49.987 54.148,50.621 53.445 C 51.423 52.555,55.042 52.821,56.185 53.856 M166.668 116.490 C 168.004 117.181,168.172 118.140,168.025 124.221 C 167.858 131.110,171.432 130.298,140.679 130.433 C 105.518 130.588,108.511 131.219,108.511 123.651 C 108.511 117.849,108.794 116.852,110.574 116.378 C 112.946 115.747,165.434 115.852,166.668 116.490 M328.657 157.461 C 329.083 157.858,329.433 158.401,329.433 158.666 C 329.433 158.931,329.970 159.948,330.628 160.924 C 331.285 161.901,331.994 163.193,332.205 163.796 C 332.415 164.399,332.994 165.426,333.492 166.079 C 333.990 166.731,334.397 167.419,334.397 167.608 C 334.397 167.796,334.959 168.882,335.645 170.022 C 336.332 171.162,336.986 172.463,337.099 172.914 C 337.212 173.364,337.847 174.496,338.510 175.429 C 339.174 176.362,339.716 177.383,339.716 177.698 C 339.716 178.013,340.186 178.862,340.759 179.583 C 341.332 180.305,342.063 181.682,342.383 182.644 C 342.702 183.606,343.152 184.514,343.383 184.661 C 343.613 184.808,344.194 185.807,344.674 186.879 C 345.153 187.952,345.909 189.281,346.354 189.832 C 346.799 190.383,347.163 191.073,347.163 191.364 C 347.163 191.655,347.651 192.602,348.247 193.469 C 348.843 194.335,349.508 195.561,349.724 196.192 C 349.941 196.824,350.477 197.819,350.916 198.404 C 351.355 198.989,351.991 200.186,352.329 201.064 C 352.668 201.941,353.214 202.979,353.543 203.369 C 353.871 203.759,354.357 204.637,354.621 205.319 C 354.886 206.002,355.630 207.336,356.275 208.284 C 356.919 209.233,357.447 210.298,357.447 210.651 C 357.447 211.004,357.849 211.771,358.340 212.355 C 358.832 212.939,359.573 214.188,359.987 215.131 C 360.400 216.073,360.855 216.924,360.997 217.021 C 361.419 217.312,363.121 220.854,363.121 221.442 C 363.121 221.741,363.277 221.986,363.469 221.986 C 363.660 221.986,364.352 223.063,365.006 224.379 C 365.660 225.696,366.917 228.132,367.799 229.793 C 368.681 231.453,369.524 233.209,369.672 233.693 C 369.820 234.178,370.321 235.082,370.786 235.703 C 371.949 237.256,371.885 238.936,370.587 240.983 C 370.013 241.889,369.444 243.080,369.323 243.631 C 369.202 244.181,368.882 244.815,368.612 245.039 C 368.342 245.263,367.934 246.032,367.705 246.748 C 367.476 247.464,366.940 248.528,366.514 249.113 C 365.642 250.311,364.539 252.567,364.539 253.153 C 364.539 253.366,364.220 253.739,363.830 253.983 C 363.440 254.227,363.121 254.623,363.121 254.863 C 363.121 255.482,361.315 259.220,361.017 259.220 C 360.880 259.220,360.410 260.084,359.972 261.141 C 359.534 262.198,358.868 263.418,358.491 263.852 C 358.115 264.286,357.666 265.137,357.495 265.743 C 357.324 266.348,356.604 267.698,355.897 268.741 C 355.189 269.785,354.610 270.850,354.610 271.108 C 354.610 271.366,354.234 272.028,353.775 272.579 C 353.315 273.130,352.747 274.172,352.512 274.894 C 352.277 275.616,351.721 276.741,351.277 277.395 C 350.833 278.050,350.036 279.454,349.504 280.516 C 348.973 281.578,347.996 283.404,347.332 284.574 C 346.668 285.745,345.567 287.834,344.886 289.217 C 344.205 290.600,343.420 291.920,343.143 292.151 C 342.866 292.381,342.551 293.004,342.444 293.536 C 342.337 294.068,341.843 295.062,341.345 295.745 C 340.848 296.427,340.264 297.385,340.049 297.872 C 339.833 298.360,339.399 299.238,339.085 299.823 C 338.770 300.408,337.911 302.004,337.176 303.369 C 336.440 304.734,335.420 306.729,334.910 307.801 C 334.399 308.874,333.622 310.230,333.184 310.816 C 332.746 311.401,332.211 312.394,331.995 313.024 C 331.779 313.653,331.270 314.525,330.864 314.962 C 330.457 315.398,329.939 316.375,329.712 317.133 C 329.484 317.893,328.899 318.773,328.406 319.096 C 327.266 319.843,76.101 320.017,74.446 319.272 C 73.840 318.999,73.393 318.383,73.107 317.426 C 72.870 316.636,72.303 315.543,71.848 314.998 C 71.392 314.453,70.896 313.608,70.745 313.121 C 70.594 312.633,70.007 311.558,69.441 310.731 C 68.874 309.904,68.174 308.556,67.884 307.734 C 67.594 306.913,67.140 305.994,66.875 305.691 C 66.610 305.389,65.955 304.264,65.420 303.191 C 64.886 302.119,64.172 300.842,63.834 300.355 C 63.496 299.867,63.025 298.870,62.788 298.138 C 62.550 297.407,62.239 296.809,62.095 296.809 C 61.730 296.809,60.284 294.172,60.284 293.507 C 60.284 293.208,59.918 292.511,59.470 291.960 C 59.022 291.409,58.354 290.239,57.985 289.362 C 57.616 288.484,57.085 287.493,56.806 287.159 C 56.527 286.826,55.943 285.789,55.508 284.854 C 55.073 283.920,54.294 282.535,53.777 281.777 C 53.260 281.018,52.837 280.169,52.837 279.890 C 52.837 279.611,52.349 278.674,51.753 277.808 C 51.157 276.942,50.490 275.716,50.271 275.084 C 50.051 274.453,49.422 273.314,48.872 272.553 C 48.322 271.793,47.872 270.977,47.872 270.741 C 47.872 270.505,47.463 269.709,46.963 268.972 C 46.464 268.236,45.797 266.977,45.481 266.175 C 45.166 265.373,44.549 264.237,44.111 263.652 C 43.672 263.067,42.996 261.848,42.608 260.943 C 42.220 260.038,41.734 259.194,41.529 259.067 C 41.100 258.802,39.716 255.805,39.716 255.140 C 39.716 254.896,39.465 254.488,39.158 254.234 C 38.852 253.979,38.161 252.803,37.623 251.619 C 37.085 250.436,36.378 249.249,36.053 248.981 C 35.727 248.714,35.461 248.227,35.461 247.899 C 35.461 247.572,34.845 246.355,34.093 245.195 C 33.340 244.034,32.605 242.686,32.459 242.199 C 32.313 241.711,31.875 241.059,31.486 240.751 C 30.352 239.852,30.227 237.311,31.253 236.010 C 31.707 235.435,32.416 234.238,32.829 233.351 C 33.242 232.464,34.003 231.117,34.521 230.358 C 35.038 229.600,35.461 228.702,35.461 228.363 C 35.461 228.024,35.727 227.527,36.053 227.260 C 36.378 226.992,37.085 225.805,37.623 224.622 C 38.161 223.438,38.852 222.262,39.158 222.007 C 39.465 221.753,39.716 221.319,39.716 221.044 C 39.716 220.320,41.443 217.021,41.822 217.021 C 41.998 217.021,42.248 216.542,42.376 215.956 C 42.505 215.370,43.129 214.133,43.763 213.208 C 44.397 212.282,45.204 210.767,45.556 209.840 C 45.908 208.914,46.322 208.156,46.476 208.156 C 46.630 208.156,47.175 207.243,47.686 206.127 C 48.197 205.010,48.842 203.846,49.121 203.538 C 49.399 203.231,49.869 202.291,50.166 201.450 C 50.463 200.610,51.185 199.270,51.771 198.473 C 52.357 197.676,52.838 196.776,52.839 196.473 C 52.841 196.170,53.168 195.443,53.567 194.858 C 53.966 194.273,54.845 192.717,55.520 191.401 C 56.194 190.084,56.904 189.007,57.097 189.007 C 57.289 189.007,57.447 188.762,57.447 188.463 C 57.447 187.794,59.075 184.528,59.558 184.230 C 59.752 184.110,60.074 183.403,60.275 182.657 C 60.476 181.911,61.122 180.695,61.711 179.953 C 62.300 179.212,62.882 178.193,63.005 177.689 C 63.128 177.185,63.650 176.135,64.167 175.355 C 64.683 174.574,65.399 173.263,65.758 172.440 C 66.117 171.616,66.707 170.674,67.070 170.346 C 67.433 170.017,67.730 169.527,67.730 169.257 C 67.730 168.691,69.111 165.867,69.517 165.603 C 69.667 165.505,70.216 164.548,70.739 163.475 C 72.779 159.282,73.714 157.648,74.323 157.202 C 74.844 156.821,97.760 156.738,201.419 156.738 L 327.880 156.738 328.657 157.461 " stroke="none" fill="#1b1b1b" fill-rule="evenodd"></path><path id="path3" d="M15.388 2.133 C 12.859 2.402,10.284 3.329,10.284 3.970 C 10.284 4.159,10.805 3.991,11.443 3.597 C 12.249 3.099,13.722 2.765,16.268 2.504 C 21.188 1.999,376.731 1.986,381.521 2.491 C 387.810 3.153,391.855 6.489,394.627 13.298 C 395.140 14.558,395.226 18.219,395.402 46.099 L 395.600 77.482 395.584 45.699 L 395.567 13.916 394.029 10.979 C 392.547 8.147,389.629 4.616,388.768 4.612 C 388.540 4.611,387.901 4.237,387.350 3.780 C 385.010 1.844,397.787 1.971,200.532 1.916 C 100.089 1.889,16.774 1.986,15.388 2.133 M8.735 4.662 C 7.617 5.311,4.661 8.498,4.409 9.326 C 4.278 9.755,3.931 10.380,3.638 10.714 C 2.071 12.500,1.566 40.904,1.440 134.309 C 1.419 150.465,1.408 150.709,0.709 150.709 C 0.009 150.709,0.000 150.946,0.000 169.858 C 0.000 188.238,0.026 189.007,0.655 189.007 C 1.401 189.007,1.492 181.860,2.147 71.454 C 2.341 38.676,2.617 15.124,2.817 14.184 C 3.521 10.880,6.257 6.892,9.202 4.878 C 10.184 4.207,9.813 4.035,8.735 4.662 M51.146 63.475 C 51.146 64.158,51.219 64.437,51.308 64.096 C 51.397 63.754,51.397 63.196,51.308 62.855 C 51.219 62.513,51.146 62.793,51.146 63.475 M395.840 124.113 C 395.799 151.886,396.283 190.624,396.761 197.872 C 396.961 200.895,397.203 206.879,397.300 211.170 C 397.618 225.227,398.244 246.262,398.366 246.986 C 398.709 249.027,398.492 223.354,398.034 207.624 C 397.743 197.677,397.353 183.346,397.165 175.777 C 396.978 168.208,396.712 161.832,396.574 161.609 C 396.436 161.386,396.222 147.872,396.098 131.577 L 395.872 101.950 395.840 124.113 M75.450 159.023 C 75.112 159.488,74.503 160.758,74.096 161.846 C 73.689 162.934,73.080 164.025,72.744 164.270 C 72.408 164.515,71.944 165.355,71.714 166.135 C 71.483 166.915,70.895 167.982,70.406 168.505 C 69.917 169.029,69.363 170.146,69.174 170.988 C 68.974 171.881,68.468 172.813,67.960 173.227 C 67.481 173.617,66.891 174.654,66.651 175.532 C 66.410 176.410,65.873 177.448,65.457 177.838 C 65.042 178.229,64.400 179.340,64.031 180.306 C 63.662 181.272,62.987 182.435,62.531 182.891 C 62.075 183.347,61.702 184.040,61.702 184.431 C 61.702 185.334,60.746 187.251,59.951 187.943 C 59.615 188.236,59.153 189.131,58.926 189.933 C 58.698 190.734,58.033 191.993,57.447 192.730 C 56.862 193.466,56.383 194.361,56.383 194.717 C 56.383 195.074,55.920 195.892,55.355 196.536 C 54.790 197.180,54.153 198.353,53.941 199.142 C 53.728 199.932,53.169 200.940,52.698 201.382 C 52.228 201.824,51.662 202.904,51.441 203.781 C 51.220 204.658,50.661 205.727,50.198 206.155 C 49.735 206.584,49.082 207.773,48.747 208.798 C 48.412 209.822,47.867 210.855,47.535 211.093 C 47.204 211.330,46.626 212.385,46.251 213.436 C 45.876 214.487,45.210 215.582,44.770 215.870 C 44.331 216.158,43.972 216.701,43.972 217.076 C 43.972 217.946,42.646 220.567,42.206 220.567 C 42.022 220.567,41.682 221.246,41.449 222.074 C 41.216 222.903,40.597 224.140,40.072 224.823 C 39.548 225.505,38.915 226.683,38.665 227.440 C 38.416 228.197,37.879 229.199,37.472 229.667 C 37.066 230.135,36.455 231.250,36.115 232.146 C 35.775 233.041,35.193 233.986,34.820 234.247 C 33.085 235.463,33.082 241.659,34.816 242.113 C 35.208 242.215,35.747 243.087,36.220 244.384 C 36.642 245.542,37.264 246.683,37.603 246.921 C 37.942 247.158,38.380 247.937,38.578 248.653 C 38.776 249.369,39.414 250.564,39.997 251.307 C 40.580 252.051,41.160 253.254,41.287 253.980 C 41.414 254.706,41.720 255.424,41.966 255.575 C 42.657 256.000,43.972 258.332,43.972 259.132 C 43.972 259.526,44.331 260.083,44.770 260.371 C 45.210 260.659,45.870 261.754,46.238 262.805 C 46.606 263.856,47.262 265.115,47.696 265.603 C 48.130 266.090,48.701 267.248,48.965 268.175 C 49.238 269.130,49.703 269.941,50.039 270.048 C 50.634 270.237,51.180 271.333,51.567 273.111 C 51.680 273.632,52.227 274.513,52.782 275.068 C 53.357 275.643,53.903 276.671,54.050 277.459 C 54.203 278.272,54.660 279.117,55.160 279.511 C 55.628 279.879,56.191 280.848,56.411 281.664 C 56.631 282.481,57.193 283.531,57.661 283.999 C 58.129 284.467,58.700 285.505,58.930 286.308 C 59.160 287.110,59.656 288.068,60.033 288.437 C 60.796 289.185,61.702 291.151,61.702 292.058 C 61.702 292.383,62.076 292.996,62.533 293.419 C 62.990 293.843,63.657 294.978,64.014 295.942 C 64.371 296.906,65.010 298.014,65.435 298.404 C 65.860 298.794,66.405 299.818,66.646 300.680 C 66.888 301.541,67.528 302.689,68.068 303.229 C 68.649 303.810,69.141 304.773,69.271 305.584 C 69.398 306.381,69.867 307.310,70.389 307.801 C 70.884 308.265,71.481 309.293,71.716 310.085 C 71.951 310.877,72.439 311.768,72.801 312.064 C 73.162 312.361,73.731 313.409,74.064 314.394 C 74.398 315.378,75.008 316.613,75.421 317.138 L 76.171 318.092 201.268 318.092 L 326.365 318.092 327.137 317.367 C 327.562 316.968,328.106 315.969,328.346 315.147 C 328.586 314.325,329.227 313.089,329.771 312.400 C 330.316 311.710,330.869 310.653,331.002 310.050 C 331.134 309.448,331.638 308.583,332.122 308.128 C 332.605 307.674,333.246 306.459,333.546 305.427 C 333.846 304.396,334.379 303.351,334.730 303.104 C 335.082 302.858,335.670 301.799,336.036 300.751 C 336.402 299.703,337.061 298.609,337.500 298.318 C 337.939 298.028,338.298 297.484,338.298 297.108 C 338.298 296.176,339.497 293.929,340.397 293.177 C 340.803 292.838,341.135 292.139,341.135 291.623 C 341.135 290.628,342.394 288.298,342.932 288.298 C 343.108 288.298,343.430 287.590,343.648 286.725 C 343.866 285.861,344.507 284.635,345.072 284.002 C 345.637 283.369,346.099 282.622,346.099 282.343 C 346.099 281.692,347.560 279.078,347.923 279.078 C 348.075 279.078,348.395 278.400,348.634 277.571 C 348.874 276.742,349.511 275.549,350.049 274.919 C 350.588 274.289,351.132 273.172,351.258 272.437 C 351.389 271.673,351.853 270.789,352.339 270.377 C 352.808 269.980,353.493 268.796,353.863 267.747 C 354.232 266.698,354.844 265.587,355.222 265.278 C 355.599 264.969,356.107 264.019,356.350 263.166 C 356.593 262.313,357.173 261.235,357.639 260.769 C 358.104 260.303,358.650 259.309,358.852 258.559 C 359.054 257.810,359.602 256.783,360.071 256.277 C 360.540 255.772,361.185 254.570,361.505 253.607 C 361.824 252.644,362.389 251.582,362.759 251.247 C 363.130 250.912,363.683 249.903,363.989 249.005 C 364.295 248.107,364.916 246.966,365.369 246.470 C 365.822 245.974,366.388 244.881,366.627 244.042 C 366.866 243.202,367.297 242.425,367.586 242.314 C 369.515 241.574,369.585 235.480,367.680 234.118 C 367.329 233.868,366.848 232.990,366.610 232.168 C 366.373 231.346,365.736 230.157,365.196 229.526 C 364.656 228.895,364.050 227.767,363.849 227.021 C 363.648 226.274,363.098 225.301,362.627 224.859 C 362.157 224.417,361.596 223.357,361.381 222.503 C 361.166 221.650,360.603 220.564,360.130 220.091 C 359.656 219.618,359.093 218.575,358.877 217.775 C 358.662 216.974,358.104 215.938,357.639 215.472 C 357.173 215.007,356.585 213.928,356.331 213.075 C 356.078 212.223,355.573 211.281,355.209 210.982 C 354.846 210.684,354.251 209.596,353.888 208.565 C 353.525 207.535,352.842 206.387,352.370 206.016 C 351.851 205.608,351.427 204.813,351.296 204.001 C 351.177 203.263,350.657 202.206,350.140 201.652 C 349.624 201.098,348.991 199.943,348.733 199.086 C 348.475 198.229,347.939 197.179,347.543 196.754 C 347.146 196.328,346.546 195.248,346.210 194.355 C 345.874 193.461,345.315 192.524,344.968 192.271 C 344.621 192.018,344.083 190.941,343.774 189.877 C 343.465 188.813,343.061 187.943,342.877 187.943 C 342.371 187.943,341.138 185.746,341.136 184.840 C 341.135 184.402,340.822 183.730,340.440 183.348 C 339.531 182.439,338.298 180.003,338.298 179.116 C 338.298 178.731,337.996 178.321,337.628 178.204 C 337.209 178.071,336.649 177.163,336.136 175.786 C 335.685 174.574,334.949 173.291,334.502 172.935 C 334.054 172.580,333.688 171.989,333.688 171.622 C 333.688 170.642,332.932 169.078,332.043 168.217 C 331.614 167.802,331.103 166.882,330.907 166.173 C 330.711 165.464,330.144 164.400,329.646 163.808 C 329.149 163.217,328.573 162.105,328.366 161.336 C 328.159 160.568,327.618 159.538,327.163 159.048 L 326.337 158.156 201.200 158.167 L 76.064 158.178 75.450 159.023 M314.585 171.011 C 315.374 171.840,316.427 173.395,316.924 174.468 C 317.422 175.541,318.096 176.738,318.423 177.128 C 318.750 177.518,319.316 178.555,319.681 179.433 C 320.046 180.310,320.640 181.365,321.002 181.776 C 321.364 182.187,321.820 183.100,322.014 183.804 C 322.209 184.508,322.750 185.539,323.217 186.094 C 323.685 186.650,324.348 187.812,324.692 188.676 C 325.035 189.541,325.764 190.958,326.311 191.825 C 326.858 192.692,327.305 193.554,327.305 193.742 C 327.305 193.929,327.712 194.616,328.210 195.269 C 328.708 195.922,329.287 196.949,329.498 197.552 C 329.708 198.154,330.417 199.447,331.075 200.423 C 331.732 201.400,332.270 202.496,332.270 202.860 C 332.270 203.224,332.719 204.046,333.267 204.686 C 333.816 205.327,334.561 206.649,334.922 207.624 C 335.283 208.599,335.871 209.606,336.229 209.861 C 336.587 210.115,336.879 210.549,336.879 210.824 C 336.879 211.600,338.035 213.874,338.918 214.837 C 339.357 215.315,339.716 215.968,339.716 216.287 C 339.716 216.607,340.261 217.713,340.926 218.746 C 341.591 219.778,342.238 221.031,342.363 221.530 C 342.489 222.029,342.968 222.934,343.428 223.541 C 343.888 224.149,344.652 225.523,345.125 226.596 C 345.598 227.668,346.240 228.757,346.551 229.014 C 346.863 229.271,347.228 229.989,347.363 230.610 C 347.498 231.230,348.058 232.252,348.607 232.880 C 350.883 235.483,350.947 240.598,348.736 243.225 C 348.251 243.801,347.676 244.804,347.460 245.452 C 347.243 246.101,346.715 247.110,346.287 247.695 C 345.859 248.280,345.077 249.637,344.549 250.709 C 344.021 251.782,342.972 253.777,342.217 255.142 C 340.811 257.685,340.094 259.079,339.392 260.638 C 339.172 261.126,338.592 262.074,338.103 262.745 C 337.614 263.416,337.117 264.373,337.000 264.873 C 336.882 265.372,336.510 266.099,336.173 266.489 C 335.835 266.879,335.136 268.140,334.619 269.291 C 334.102 270.441,333.467 271.558,333.208 271.773 C 332.949 271.987,332.466 272.904,332.134 273.810 C 331.802 274.715,331.178 275.867,330.746 276.369 C 330.315 276.871,329.677 278.085,329.328 279.066 C 328.979 280.048,328.569 280.851,328.415 280.851 C 328.261 280.851,327.757 281.689,327.295 282.713 C 326.833 283.737,326.194 284.894,325.875 285.284 C 325.556 285.674,325.031 286.711,324.707 287.589 C 324.383 288.466,323.719 289.647,323.231 290.212 C 322.744 290.778,322.191 291.797,322.003 292.479 C 321.815 293.160,321.361 294.054,320.995 294.465 C 320.629 294.876,319.970 296.090,319.530 297.163 C 319.090 298.236,318.514 299.284,318.251 299.492 C 317.987 299.701,317.440 300.710,317.037 301.734 C 316.609 302.819,315.638 304.252,314.709 305.167 L 313.116 306.738 198.919 306.738 L 84.721 306.738 82.964 305.094 C 81.856 304.057,81.079 302.974,80.860 302.161 C 80.669 301.451,80.052 300.236,79.488 299.460 C 78.925 298.684,78.260 297.411,78.011 296.631 C 77.762 295.851,77.219 294.869,76.804 294.449 C 76.390 294.029,75.757 292.868,75.398 291.870 C 75.039 290.871,74.481 289.913,74.157 289.740 C 73.833 289.566,73.381 288.726,73.153 287.873 C 72.925 287.020,72.250 285.708,71.653 284.956 C 71.056 284.205,70.567 283.369,70.567 283.099 C 70.567 282.828,70.011 281.798,69.331 280.810 C 68.651 279.821,67.931 278.405,67.731 277.663 C 67.532 276.921,67.148 276.230,66.879 276.127 C 66.611 276.023,66.107 275.169,65.761 274.228 C 65.415 273.288,64.753 272.002,64.290 271.371 C 63.827 270.740,63.208 269.546,62.916 268.716 C 62.623 267.887,62.010 266.807,61.554 266.317 C 61.097 265.827,60.525 264.787,60.283 264.007 C 60.040 263.227,59.556 262.270,59.206 261.879 C 58.856 261.489,58.144 260.293,57.624 259.220 C 55.947 255.760,54.451 252.989,53.686 251.925 C 53.276 251.354,52.839 250.466,52.715 249.952 C 52.591 249.438,51.929 248.186,51.245 247.168 C 50.560 246.151,50.000 245.035,50.000 244.689 C 50.000 244.342,49.749 243.850,49.442 243.596 C 46.881 241.470,46.690 234.677,49.151 233.233 C 49.411 233.080,49.789 232.344,49.990 231.596 C 50.192 230.849,50.832 229.638,51.414 228.906 C 51.996 228.174,52.619 227.045,52.797 226.398 C 52.976 225.750,53.513 224.692,53.990 224.046 C 54.467 223.401,55.134 222.154,55.471 221.277 C 55.809 220.399,56.372 219.362,56.724 218.972 C 57.075 218.582,57.579 217.645,57.845 216.891 C 58.111 216.137,58.655 215.168,59.054 214.738 C 59.453 214.307,59.977 213.296,60.218 212.490 C 60.460 211.684,61.054 210.553,61.539 209.977 C 62.023 209.401,62.663 208.242,62.960 207.401 C 63.256 206.559,63.801 205.548,64.170 205.152 C 64.539 204.756,65.185 203.555,65.605 202.482 C 66.026 201.410,66.677 200.246,67.051 199.898 C 67.425 199.549,67.730 199.022,67.730 198.727 C 67.730 198.005,68.707 196.146,69.731 194.920 C 70.191 194.368,70.567 193.665,70.567 193.357 C 70.567 193.049,70.962 192.279,71.445 191.646 C 71.928 191.013,72.657 189.650,73.064 188.616 C 73.471 187.582,74.114 186.520,74.491 186.256 C 74.868 185.992,75.177 185.539,75.177 185.249 C 75.177 184.520,76.591 181.794,77.134 181.476 C 77.380 181.332,77.688 180.774,77.819 180.235 C 77.951 179.696,78.671 178.218,79.420 176.950 C 80.169 175.683,80.890 174.279,81.023 173.831 C 81.328 172.800,84.034 169.994,84.948 169.761 C 85.328 169.665,136.828 169.567,199.394 169.545 L 313.149 169.504 314.585 171.011 M98.172 215.549 L 96.986 216.608 96.986 239.502 L 96.986 262.395 97.968 263.378 C 98.912 264.323,99.114 264.366,103.077 264.482 C 112.040 264.744,111.775 265.046,111.834 254.518 C 111.865 248.872,112.016 245.969,112.314 245.301 L 112.748 244.326 122.851 244.326 C 135.035 244.326,133.686 243.171,133.693 253.611 C 133.700 264.850,133.320 264.300,141.194 264.482 L 146.395 264.603 147.754 263.357 L 149.113 262.111 149.167 240.896 C 149.239 212.625,149.779 214.544,141.744 214.541 C 133.598 214.538,133.916 214.138,133.688 224.645 L 133.511 232.801 123.093 232.895 C 110.316 233.011,111.728 234.132,111.713 223.856 L 111.702 215.974 110.744 215.345 C 109.961 214.831,108.835 214.696,104.572 214.603 L 99.358 214.489 98.172 215.549 M154.560 215.217 C 153.113 216.389,153.168 223.736,154.635 225.203 C 155.265 225.832,155.880 225.887,162.388 225.887 C 166.276 225.887,169.867 226.042,170.367 226.232 L 171.277 226.578 171.277 244.824 L 171.277 263.069 172.249 263.834 C 173.166 264.555,173.532 264.593,178.596 264.481 C 186.312 264.310,185.460 266.739,185.466 244.892 C 185.469 234.927,185.593 226.583,185.741 226.350 C 185.930 226.053,188.271 225.880,193.625 225.767 C 197.814 225.679,201.401 225.599,201.596 225.590 C 205.070 225.431,219.028 226.044,219.232 226.364 C 219.375 226.589,219.499 234.832,219.506 244.681 C 219.522 266.657,218.713 264.317,226.349 264.475 C 231.738 264.586,231.834 264.574,232.842 263.708 L 233.865 262.827 233.940 244.632 C 234.011 227.524,234.053 226.422,234.649 226.187 C 234.998 226.049,238.523 225.925,242.481 225.911 L 249.679 225.887 250.549 224.948 C 251.921 223.468,251.880 216.372,250.493 215.281 C 249.102 214.187,155.910 214.125,154.560 215.217 M258.156 214.789 C 257.863 214.896,257.265 215.311,256.826 215.710 L 256.028 216.436 256.028 239.534 L 256.028 262.633 257.181 263.497 C 258.206 264.267,258.758 264.375,262.196 264.483 C 270.477 264.743,270.922 264.377,270.922 257.299 C 270.922 250.977,270.080 251.531,279.965 251.350 C 287.821 251.207,288.192 251.168,290.071 250.291 C 291.144 249.790,292.880 249.180,293.930 248.935 C 294.979 248.689,296.175 248.150,296.587 247.737 C 296.999 247.324,297.816 246.732,298.402 246.421 C 298.988 246.111,299.626 245.511,299.820 245.088 C 300.013 244.666,300.454 244.230,300.801 244.120 C 301.147 244.010,301.734 243.333,302.105 242.616 C 302.476 241.899,303.091 241.052,303.472 240.734 C 305.428 239.101,305.171 224.823,303.186 224.823 C 303.002 224.823,302.540 224.213,302.160 223.468 C 301.780 222.724,300.820 221.567,300.025 220.898 C 299.231 220.228,297.991 219.163,297.269 218.531 C 296.548 217.899,295.391 217.290,294.699 217.179 C 293.454 216.978,292.897 216.760,291.099 215.769 C 289.204 214.724,260.658 213.875,258.156 214.789 M109.111 216.458 L 110.106 217.313 110.284 224.936 L 110.461 232.559 111.439 233.656 L 112.417 234.752 122.813 234.752 C 136.189 234.752,135.547 235.226,135.458 225.418 C 135.377 216.455,135.293 217.113,136.613 216.308 C 138.435 215.198,145.818 215.259,146.611 216.391 C 147.339 217.431,147.461 261.972,146.738 262.695 C 146.090 263.343,137.230 263.277,136.327 262.618 C 135.687 262.151,135.626 261.507,135.461 253.544 L 135.284 244.973 134.272 244.103 L 133.259 243.233 122.667 243.336 C 109.080 243.469,110.519 242.283,110.284 253.541 C 110.117 261.501,110.062 262.061,109.397 262.563 C 108.346 263.356,99.932 263.357,99.139 262.563 C 98.162 261.586,98.307 217.295,99.291 216.312 C 100.455 215.148,107.713 215.256,109.111 216.458 M200.193 216.473 C 200.672 216.952,201.064 217.590,201.064 217.892 C 201.064 218.679,201.362 218.576,202.449 217.411 C 204.093 215.651,204.693 215.607,226.773 215.607 C 251.052 215.607,249.852 215.453,250.189 218.608 C 250.776 224.085,250.238 224.454,241.667 224.468 C 231.571 224.484,232.595 222.210,232.637 244.511 C 232.663 257.795,232.566 262.232,232.242 262.622 C 231.385 263.655,221.584 263.161,221.026 262.057 C 220.683 261.379,220.577 257.051,220.573 243.640 C 220.566 222.037,221.607 224.468,212.368 224.468 C 205.403 224.468,204.216 224.221,201.883 222.285 C 201.493 221.961,201.275 222.032,200.863 222.621 C 199.550 224.495,199.672 224.468,192.552 224.468 L 185.864 224.468 185.143 225.480 C 184.445 226.461,184.419 227.051,184.321 244.303 C 184.224 261.463,184.195 262.133,183.532 262.617 C 182.453 263.406,173.315 263.336,172.650 262.535 C 172.257 262.061,172.129 258.457,171.986 243.757 C 171.847 229.509,171.709 225.467,171.348 225.106 C 171.008 224.765,168.954 224.617,163.441 224.537 L 155.994 224.428 155.279 223.296 C 154.684 222.351,154.590 221.727,154.716 219.529 C 154.961 215.241,152.823 215.603,177.892 215.603 L 199.323 215.603 200.193 216.473 M290.833 217.261 C 293.312 218.069,295.652 219.056,296.064 219.468 C 296.473 219.878,296.968 220.213,297.163 220.213 C 297.709 220.213,301.418 224.079,301.418 224.647 C 301.418 224.924,301.716 225.435,302.081 225.784 C 303.259 226.913,303.721 229.028,303.691 233.156 C 303.662 237.128,303.588 237.422,301.802 240.662 C 301.159 241.828,298.096 245.390,297.736 245.390 C 297.624 245.390,296.650 245.954,295.572 246.644 C 294.376 247.408,292.818 248.040,291.576 248.264 C 290.455 248.465,288.502 248.954,287.234 249.350 C 285.393 249.925,283.575 250.109,278.199 250.264 C 273.820 250.391,271.076 250.623,270.342 250.929 L 269.214 251.401 269.093 256.675 C 268.936 263.482,269.253 263.121,263.440 263.121 C 259.037 263.121,258.863 263.092,258.331 262.281 C 257.753 261.398,257.486 218.629,258.050 217.127 C 258.618 215.614,258.780 215.598,272.872 215.701 L 286.348 215.799 290.833 217.261 M270.479 225.255 L 269.149 226.026 269.149 232.863 L 269.149 239.700 270.112 240.329 C 271.525 241.250,285.038 241.238,286.782 240.314 C 293.924 236.527,292.948 227.207,285.197 225.177 C 281.120 224.109,272.376 224.156,270.479 225.255 M284.898 226.296 C 286.529 226.623,287.126 226.942,287.883 227.892 C 288.404 228.544,289.023 229.078,289.259 229.078 C 290.889 229.078,290.679 234.977,288.988 236.722 C 286.039 239.765,285.703 239.873,278.718 240.018 C 270.225 240.194,270.922 240.818,270.922 233.037 C 270.922 228.610,271.048 226.611,271.348 226.312 C 271.911 225.749,282.114 225.737,284.898 226.296 M398.582 260.993 C 398.582 272.104,398.596 272.340,399.291 272.340 C 399.985 272.340,400.000 272.104,400.000 260.993 C 400.000 249.882,399.985 249.645,399.291 249.645 C 398.596 249.645,398.582 249.882,398.582 260.993 " stroke="none" fill="#4996c4" fill-rule="evenodd"></path><path id="path4" d="M15.659 2.531 C 9.639 3.161,4.093 8.194,2.817 14.184 C 2.617 15.124,2.341 38.676,2.147 71.454 C 1.492 181.860,1.401 189.007,0.655 189.007 C 0.020 189.007,0.000 191.413,0.000 267.021 C 0.000 344.821,0.002 345.035,0.710 345.035 C 1.155 345.035,1.894 345.696,2.693 346.808 C 4.492 349.311,7.703 351.642,10.653 352.585 C 12.444 353.158,13.107 353.536,13.113 353.989 C 13.120 354.580,22.200 354.610,198.759 354.610 C 384.161 354.610,384.397 354.609,384.397 353.901 C 384.397 353.462,384.634 353.191,385.018 353.191 C 390.746 353.190,398.582 344.009,398.582 337.299 C 398.582 336.761,398.798 336.525,399.291 336.525 C 399.995 336.525,400.000 336.288,400.000 304.433 C 400.000 273.403,399.978 272.340,399.342 272.340 C 398.714 272.340,398.673 271.618,398.455 256.649 C 398.330 248.019,398.074 236.489,397.888 231.028 C 397.701 225.567,397.446 216.950,397.322 211.879 C 397.197 206.809,396.949 200.505,396.770 197.872 C 396.270 190.509,395.839 147.874,395.575 79.787 C 395.443 45.754,395.198 16.898,395.031 15.663 C 394.073 8.603,388.565 3.233,381.521 2.491 C 377.313 2.047,19.904 2.087,15.659 2.531 M380.882 3.898 C 386.685 4.738,392.553 9.225,392.553 12.822 C 392.553 13.120,392.848 14.227,393.208 15.281 C 393.835 17.114,393.873 20.495,394.080 91.844 C 394.198 132.899,394.494 204.490,394.736 250.934 C 395.068 314.684,395.076 335.813,394.768 337.148 C 393.567 342.350,390.772 345.955,386.240 348.148 L 383.511 349.468 198.759 349.468 L 14.007 349.468 11.262 348.100 C 8.576 346.762,4.610 343.170,4.610 342.076 C 4.610 341.836,4.280 341.007,3.876 340.235 C 2.505 337.612,2.492 336.386,2.872 246.277 C 3.076 197.713,3.364 126.223,3.511 87.411 L 3.779 16.844 4.700 13.945 C 6.631 7.866,10.173 4.861,16.489 3.942 C 19.468 3.509,377.893 3.466,380.882 3.898 M50.621 53.445 C 49.987 54.148,49.648 66.400,50.220 67.892 C 50.497 68.613,52.184 69.504,53.272 69.504 C 53.726 69.504,54.351 69.799,54.661 70.161 C 54.970 70.523,56.529 71.171,58.125 71.601 C 59.721 72.032,61.538 72.679,62.162 73.040 C 62.787 73.400,64.245 73.886,65.403 74.120 C 66.561 74.354,68.089 74.930,68.798 75.399 C 69.506 75.868,71.167 76.478,72.489 76.754 C 73.810 77.031,75.161 77.501,75.491 77.800 C 75.821 78.098,77.441 78.698,79.092 79.131 C 80.742 79.565,82.473 80.209,82.938 80.563 C 83.403 80.916,83.937 81.206,84.124 81.206 C 84.312 81.206,85.355 81.464,86.442 81.780 L 88.418 82.355 85.807 83.206 C 84.371 83.674,82.947 84.273,82.644 84.537 C 82.340 84.800,81.215 85.215,80.142 85.459 C 79.069 85.702,77.473 86.275,76.596 86.732 C 75.718 87.188,73.750 87.874,72.223 88.256 C 70.695 88.637,69.180 89.190,68.854 89.483 C 68.529 89.776,67.174 90.268,65.844 90.576 C 63.391 91.144,62.051 91.689,61.668 92.273 C 61.551 92.451,60.283 92.839,58.850 93.136 C 57.416 93.433,55.865 93.973,55.402 94.338 C 54.939 94.702,53.697 95.250,52.643 95.557 C 49.999 96.326,49.969 96.426,50.081 104.297 C 50.203 112.916,51.397 114.156,56.383 110.840 C 57.066 110.387,58.422 109.831,59.397 109.606 C 61.559 109.107,63.121 108.509,63.121 108.179 C 63.121 108.044,64.437 107.563,66.046 107.109 C 67.655 106.656,69.157 106.057,69.383 105.778 C 69.609 105.499,70.806 105.040,72.042 104.758 C 74.781 104.132,76.174 103.592,76.515 103.025 C 76.657 102.789,77.878 102.323,79.228 101.988 C 80.578 101.654,82.100 101.082,82.610 100.719 C 83.121 100.356,84.569 99.797,85.830 99.478 C 87.090 99.159,88.520 98.617,89.007 98.272 C 89.495 97.928,90.691 97.433,91.667 97.172 C 92.642 96.910,93.998 96.411,94.681 96.062 C 96.924 94.915,97.320 94.765,99.291 94.323 C 100.363 94.082,101.560 93.596,101.950 93.243 C 102.340 92.890,103.856 92.274,105.319 91.874 C 110.079 90.572,111.095 88.270,110.515 80.102 C 110.178 75.348,109.080 73.988,104.696 72.890 C 103.381 72.561,101.986 72.005,101.596 71.655 C 101.206 71.305,99.770 70.727,98.404 70.370 C 97.039 70.014,95.514 69.427,95.016 69.066 C 94.518 68.705,93.137 68.182,91.947 67.904 C 90.757 67.627,89.205 67.008,88.499 66.529 C 87.352 65.750,84.538 64.894,83.127 64.894 C 82.838 64.894,82.510 64.654,82.397 64.360 C 82.285 64.067,81.053 63.490,79.660 63.078 C 78.267 62.666,76.569 61.963,75.887 61.515 C 75.204 61.067,73.688 60.515,72.518 60.289 C 71.348 60.063,69.945 59.561,69.402 59.174 C 68.185 58.307,65.812 57.447,64.639 57.447 C 64.158 57.447,63.355 57.124,62.854 56.731 C 62.353 56.337,60.812 55.677,59.429 55.265 C 58.046 54.853,56.586 54.219,56.185 53.856 C 55.042 52.821,51.423 52.555,50.621 53.445 M55.321 55.596 C 56.590 55.974,58.432 56.691,59.415 57.189 C 60.397 57.686,62.151 58.368,63.313 58.703 C 64.475 59.038,65.984 59.601,66.667 59.954 C 67.349 60.306,69.025 60.947,70.390 61.377 C 71.755 61.807,73.191 62.362,73.582 62.611 C 73.972 62.859,75.009 63.248,75.887 63.475 C 76.764 63.702,78.150 64.274,78.966 64.747 C 79.782 65.219,81.458 65.860,82.690 66.172 C 83.921 66.483,85.408 67.021,85.993 67.368 C 86.578 67.714,88.174 68.357,89.539 68.796 C 90.904 69.236,92.261 69.795,92.553 70.040 C 92.846 70.285,94.036 70.757,95.198 71.089 C 96.360 71.422,98.038 72.062,98.927 72.513 C 99.816 72.964,101.255 73.524,102.125 73.758 C 103.738 74.193,107.127 75.830,108.245 76.715 C 109.032 77.338,109.184 87.040,108.422 88.027 C 107.860 88.755,104.217 90.575,102.128 91.171 C 101.250 91.421,100.213 91.826,99.823 92.070 C 99.433 92.314,97.690 93.016,95.950 93.629 C 94.211 94.242,92.455 94.956,92.050 95.215 C 91.644 95.475,90.597 95.876,89.722 96.106 C 88.848 96.337,87.374 96.910,86.448 97.379 C 85.522 97.849,83.859 98.469,82.753 98.757 C 81.647 99.045,80.406 99.501,79.994 99.771 C 79.582 100.040,78.051 100.686,76.591 101.206 C 75.131 101.726,73.298 102.445,72.518 102.804 C 71.738 103.163,70.062 103.814,68.794 104.250 C 62.784 106.318,60.681 107.105,59.043 107.898 C 58.067 108.371,56.487 108.949,55.532 109.184 C 54.576 109.419,53.349 109.841,52.806 110.122 C 51.879 110.602,51.804 110.584,51.566 109.838 C 51.176 108.611,51.119 100.707,51.489 99.101 C 51.890 97.362,51.524 97.546,61.348 94.153 C 63.200 93.513,65.434 92.656,66.312 92.247 C 67.190 91.839,68.227 91.500,68.617 91.494 C 69.007 91.487,70.204 91.065,71.277 90.554 C 72.349 90.043,74.331 89.327,75.681 88.963 C 77.031 88.598,78.476 88.077,78.892 87.804 C 79.308 87.532,80.916 86.903,82.466 86.406 C 84.016 85.910,85.916 85.175,86.688 84.773 C 87.461 84.371,88.268 84.043,88.481 84.043 C 88.695 84.043,89.393 83.656,90.033 83.184 L 91.196 82.326 90.367 81.784 C 89.186 81.012,82.741 78.369,82.040 78.369 C 81.716 78.369,80.405 77.874,79.126 77.270 C 77.846 76.665,75.732 75.900,74.426 75.568 C 73.121 75.237,71.816 74.768,71.525 74.527 C 71.235 74.286,69.849 73.771,68.446 73.382 C 67.043 72.993,65.116 72.281,64.165 71.799 C 63.213 71.316,62.096 70.922,61.683 70.922 C 61.269 70.922,59.683 70.374,58.159 69.703 C 56.634 69.033,54.853 68.383,54.200 68.260 C 51.518 67.751,51.130 66.726,51.239 60.433 C 51.322 55.617,51.563 54.459,52.428 54.726 C 52.750 54.826,54.052 55.217,55.321 55.596 M110.574 116.378 C 108.794 116.852,108.511 117.849,108.511 123.651 C 108.511 131.219,105.518 130.588,140.679 130.433 C 171.432 130.298,167.858 131.110,168.025 124.221 C 168.172 118.140,168.004 117.181,166.668 116.490 C 165.434 115.852,112.946 115.747,110.574 116.378 M166.029 118.014 C 166.802 118.787,166.899 127.376,166.144 128.132 C 165.187 129.088,112.519 129.034,111.336 128.076 C 109.499 126.589,109.977 119.497,112.028 117.806 C 112.843 117.135,165.351 117.337,166.029 118.014 M74.064 157.485 L 73.227 158.233 74.190 157.663 C 75.069 157.141,86.037 157.092,201.558 157.092 L 327.963 157.092 328.698 158.027 C 329.102 158.540,329.433 158.786,329.433 158.572 C 329.433 158.359,329.083 157.858,328.657 157.461 L 327.880 156.738 201.391 156.738 L 74.901 156.738 74.064 157.485 M72.608 159.857 C 72.268 160.579,71.651 161.696,71.236 162.339 C 70.822 162.982,70.542 163.568,70.614 163.640 C 70.833 163.859,73.479 159.265,73.348 158.892 C 73.282 158.700,72.949 159.134,72.608 159.857 M329.433 159.476 C 329.433 159.682,329.761 160.227,330.163 160.688 L 330.893 161.525 330.270 160.461 C 329.450 159.061,329.433 159.040,329.433 159.476 M331.390 162.766 C 332.174 164.348,332.428 164.602,332.098 163.475 C 331.956 162.988,331.599 162.349,331.306 162.057 C 330.896 161.646,330.915 161.809,331.390 162.766 M70.213 164.455 C 70.213 164.668,69.992 165.064,69.722 165.334 C 69.065 165.991,67.723 168.650,67.759 169.223 C 67.775 169.475,68.027 169.122,68.318 168.440 C 68.609 167.757,69.258 166.597,69.760 165.862 C 70.262 165.127,70.569 164.423,70.443 164.296 C 70.316 164.170,70.213 164.241,70.213 164.455 M333.688 166.855 C 333.688 167.371,334.870 169.769,335.595 170.726 C 336.047 171.321,336.609 172.394,336.844 173.110 C 337.078 173.826,337.484 174.589,337.745 174.805 C 338.226 175.205,337.333 173.027,336.297 171.277 C 336.009 170.789,335.372 169.552,334.882 168.528 C 334.083 166.860,333.688 166.306,333.688 166.855 M65.607 172.723 C 65.340 173.390,64.670 174.603,64.121 175.419 C 63.571 176.234,63.123 177.111,63.126 177.369 C 63.129 177.626,63.861 176.604,64.754 175.096 C 65.646 173.589,66.313 172.165,66.235 171.932 C 66.158 171.700,65.875 172.055,65.607 172.723 M338.857 176.596 C 339.596 178.137,339.716 178.275,339.716 177.581 C 339.716 177.277,339.389 176.652,338.990 176.192 L 338.263 175.355 338.857 176.596 M62.461 178.811 C 62.230 179.250,61.646 180.152,61.163 180.815 C 60.679 181.478,60.290 182.275,60.298 182.588 C 60.306 182.912,60.550 182.700,60.867 182.092 C 61.172 181.507,61.828 180.427,62.324 179.692 C 62.820 178.957,63.148 178.278,63.054 178.184 C 62.959 178.089,62.692 178.371,62.461 178.811 M339.716 178.629 C 339.716 178.803,340.008 179.257,340.364 179.640 C 340.721 180.022,341.309 181.007,341.671 181.828 C 342.476 183.652,342.813 183.577,342.047 181.744 C 341.494 180.422,339.716 178.045,339.716 178.629 M59.345 184.488 C 58.288 186.085,57.444 187.821,57.459 188.369 C 57.466 188.622,57.872 187.974,58.361 186.928 C 58.850 185.881,59.483 184.793,59.767 184.509 C 60.207 184.068,60.478 183.328,60.195 183.336 C 60.146 183.337,59.764 183.856,59.345 184.488 M342.553 184.022 C 342.553 184.205,342.731 184.465,342.947 184.599 C 343.164 184.733,343.737 185.740,344.219 186.836 C 344.702 187.933,345.457 189.309,345.898 189.894 C 346.338 190.479,346.790 191.197,346.903 191.489 C 347.071 191.927,347.112 191.916,347.135 191.428 C 347.151 191.102,346.799 190.383,346.354 189.832 C 345.909 189.281,345.151 187.956,344.670 186.887 C 343.839 185.044,342.553 183.303,342.553 184.022 M56.344 189.805 C 55.927 190.599,55.929 190.599,56.686 189.927 C 57.531 189.177,57.608 189.007,57.105 189.007 C 56.917 189.007,56.574 189.366,56.344 189.805 M55.702 190.980 C 55.686 191.187,55.035 192.415,54.255 193.709 C 53.475 195.002,52.841 196.269,52.845 196.523 C 52.853 196.934,53.229 196.354,55.493 192.440 C 55.811 191.891,55.995 191.253,55.901 191.022 C 55.801 190.777,55.718 190.759,55.702 190.980 M347.163 192.437 C 347.163 192.568,347.389 192.927,347.665 193.234 C 347.941 193.542,348.588 194.592,349.102 195.567 C 349.616 196.543,349.931 196.941,349.803 196.454 C 349.434 195.052,347.163 191.597,347.163 192.437 M51.531 198.866 C 50.922 199.782,50.237 201.128,50.009 201.857 C 49.780 202.585,49.443 203.275,49.258 203.389 C 48.779 203.685,47.079 207.126,47.302 207.349 C 47.404 207.451,47.898 206.677,48.400 205.629 C 49.909 202.479,51.932 198.712,52.451 198.088 C 52.719 197.765,52.870 197.433,52.788 197.351 C 52.705 197.268,52.140 197.950,51.531 198.866 M350.451 198.227 C 351.071 199.113,351.453 199.888,352.138 201.645 C 352.338 202.160,352.589 202.494,352.696 202.387 C 352.983 202.100,351.143 198.375,350.439 197.820 C 349.878 197.377,349.879 197.409,350.451 198.227 M352.837 203.082 C 352.837 203.277,353.156 203.725,353.546 204.078 C 353.936 204.431,354.255 204.560,354.255 204.365 C 354.255 204.170,353.936 203.722,353.546 203.369 C 353.156 203.016,352.837 202.887,352.837 203.082 M354.461 205.674 C 354.588 206.161,355.080 207.078,355.554 207.710 C 356.027 208.342,356.641 209.380,356.917 210.015 C 357.193 210.650,357.425 210.913,357.433 210.599 C 357.441 210.285,357.020 209.407,356.498 208.649 C 355.975 207.890,355.252 206.711,354.889 206.028 C 354.420 205.145,354.297 205.043,354.461 205.674 M46.302 208.359 C 45.995 208.665,45.745 209.091,45.745 209.304 C 45.745 209.518,45.786 209.626,45.837 209.545 C 45.888 209.464,46.232 209.038,46.601 208.599 C 47.365 207.692,47.146 207.515,46.302 208.359 M45.187 210.719 C 45.049 211.153,44.400 212.288,43.745 213.241 C 43.089 214.194,42.553 215.139,42.553 215.341 C 42.553 215.543,43.271 214.615,44.149 213.278 C 45.027 211.942,45.745 210.642,45.745 210.389 C 45.745 209.679,45.465 209.844,45.187 210.719 M357.447 211.632 C 357.447 211.818,357.712 212.189,358.036 212.457 C 358.361 212.724,358.932 213.635,359.307 214.480 C 359.682 215.325,360.067 215.938,360.162 215.843 C 360.258 215.747,360.062 215.135,359.728 214.483 C 359.021 213.104,357.447 211.136,357.447 211.632 M360.284 216.557 C 360.284 216.752,360.603 217.200,360.993 217.553 C 361.383 217.906,361.702 218.115,361.702 218.017 C 361.702 217.919,361.383 217.471,360.993 217.021 C 360.603 216.572,360.284 216.363,360.284 216.557 M40.589 218.822 C 40.087 219.813,39.735 220.801,39.808 221.018 C 39.880 221.236,40.222 220.704,40.567 219.838 C 40.912 218.971,41.445 217.983,41.751 217.642 C 42.087 217.268,42.148 217.021,41.905 217.021 C 41.683 217.021,41.091 217.832,40.589 218.822 M361.911 219.149 C 362.236 220.381,363.092 221.925,363.092 221.277 C 363.091 220.984,362.773 220.186,362.384 219.504 C 361.853 218.571,361.736 218.483,361.911 219.149 M38.924 222.252 C 38.622 222.593,38.024 223.699,37.595 224.709 C 37.165 225.719,36.509 226.821,36.137 227.157 C 35.765 227.494,35.461 228.006,35.461 228.294 C 35.461 229.075,36.747 227.314,37.790 225.107 C 38.278 224.073,38.931 222.868,39.240 222.429 C 39.907 221.483,39.703 221.369,38.924 222.252 M363.516 222.567 C 363.968 223.111,364.461 224.024,367.079 229.155 C 367.648 230.269,368.251 231.267,368.419 231.370 C 368.588 231.474,368.158 230.482,367.466 229.166 C 366.773 227.850,365.669 225.696,365.012 224.379 C 364.355 223.063,363.641 221.986,363.425 221.986 C 363.176 221.986,363.210 222.198,363.516 222.567 M34.352 230.627 C 33.020 232.721,32.188 234.434,32.400 234.646 C 32.500 234.746,32.823 234.253,33.117 233.549 C 33.411 232.845,34.074 231.716,34.590 231.040 C 35.106 230.364,35.473 229.664,35.406 229.486 C 35.339 229.308,34.864 229.822,34.352 230.627 M30.586 238.121 C 30.590 238.901,30.662 239.178,30.747 238.737 C 30.832 238.296,30.829 237.658,30.740 237.319 C 30.651 236.980,30.582 237.340,30.586 238.121 M30.851 240.058 C 30.851 240.247,31.210 240.589,31.649 240.819 C 32.443 241.236,32.443 241.234,31.771 240.477 C 31.021 239.632,30.851 239.555,30.851 240.058 M32.482 242.199 C 32.736 243.147,33.698 244.714,33.673 244.139 C 33.665 243.950,33.340 243.236,32.952 242.553 C 32.424 241.627,32.305 241.537,32.482 242.199 M34.259 245.373 C 34.475 245.675,34.830 246.241,35.046 246.631 C 35.262 247.021,35.444 247.150,35.450 246.917 C 35.456 246.684,35.102 246.118,34.663 245.658 C 34.224 245.199,34.042 245.071,34.259 245.373 M367.207 247.136 C 367.088 247.512,366.584 248.418,366.087 249.151 C 364.844 250.982,363.315 254.475,364.008 253.900 C 364.300 253.658,364.539 253.303,364.539 253.113 C 364.539 252.560,365.670 250.272,366.516 249.113 C 367.287 248.058,367.942 246.454,367.601 246.454 C 367.503 246.454,367.326 246.761,367.207 247.136 M35.461 247.957 C 35.461 248.253,35.727 248.714,36.053 248.981 C 36.378 249.249,37.085 250.436,37.623 251.619 C 38.161 252.803,38.892 253.997,39.247 254.273 C 39.858 254.748,39.862 254.737,39.317 254.072 C 38.999 253.685,38.426 252.651,38.042 251.773 C 37.160 249.757,35.461 247.245,35.461 247.957 M362.230 256.392 C 361.844 257.389,361.247 258.458,360.905 258.767 C 360.563 259.077,360.284 259.489,360.284 259.684 C 360.284 259.878,360.610 259.662,361.008 259.202 C 361.825 258.261,363.191 255.352,363.035 254.886 C 362.979 254.718,362.617 255.396,362.230 256.392 M39.716 255.307 C 39.716 255.918,40.921 258.307,41.747 259.336 C 42.191 259.887,42.553 260.166,42.553 259.956 C 42.553 259.746,42.255 259.277,41.891 258.913 C 41.527 258.549,40.947 257.511,40.602 256.608 C 39.992 255.011,39.716 254.606,39.716 255.307 M359.589 261.312 C 359.350 261.890,358.770 262.884,358.300 263.520 C 357.831 264.156,357.452 264.845,357.458 265.051 C 357.464 265.257,357.649 265.106,357.871 264.716 C 358.092 264.326,358.385 263.927,358.521 263.830 C 358.912 263.551,360.351 260.587,360.179 260.415 C 360.094 260.330,359.829 260.734,359.589 261.312 M42.557 260.835 C 42.555 261.040,43.068 261.998,43.697 262.962 C 44.327 263.927,45.043 265.115,45.290 265.603 L 45.738 266.489 45.522 265.603 C 45.403 265.115,45.098 264.477,44.844 264.184 C 44.590 263.892,43.972 262.934,43.472 262.057 C 42.971 261.179,42.560 260.629,42.557 260.835 M356.418 267.121 C 355.950 267.944,355.097 269.495,354.524 270.567 C 353.950 271.640,353.296 272.757,353.070 273.050 C 352.706 273.521,352.735 273.522,353.329 273.055 C 353.697 272.765,354.296 271.833,354.660 270.983 C 355.024 270.133,355.818 268.748,356.424 267.904 C 357.030 267.061,357.468 266.202,357.397 265.997 C 357.327 265.792,356.886 266.298,356.418 267.121 M45.745 266.904 C 45.745 267.111,46.042 267.661,46.405 268.126 C 46.768 268.591,47.490 269.873,48.009 270.974 C 48.529 272.076,49.219 273.193,49.545 273.457 C 50.195 273.984,49.988 273.444,49.118 272.340 C 48.887 272.048,48.485 271.250,48.225 270.567 C 47.703 269.198,45.745 266.305,45.745 266.904 M351.795 275.435 C 350.483 278.248,348.443 282.096,347.784 282.997 C 347.442 283.464,347.164 284.010,347.164 284.210 C 347.167 284.913,349.391 281.088,351.965 275.952 C 352.485 274.916,352.836 273.995,352.747 273.905 C 352.657 273.815,352.229 274.504,351.795 275.435 M50.205 274.823 C 50.488 275.936,52.508 279.170,52.762 278.916 C 52.866 278.813,52.704 278.448,52.403 278.105 C 52.102 277.763,51.433 276.684,50.917 275.709 C 50.401 274.734,50.081 274.335,50.205 274.823 M52.837 279.832 C 52.837 280.143,53.235 280.984,53.722 281.701 C 54.209 282.419,54.920 283.598,55.302 284.322 C 55.684 285.046,56.004 285.396,56.013 285.100 C 56.021 284.804,55.651 284.006,55.190 283.327 C 54.728 282.648,54.010 281.456,53.594 280.679 C 53.178 279.902,52.837 279.520,52.837 279.832 M345.901 286.465 C 345.306 287.375,344.602 288.679,344.337 289.362 C 344.072 290.044,343.666 290.842,343.435 291.135 C 342.534 292.278,342.356 292.780,343.054 292.213 C 343.405 291.928,344.081 290.811,344.558 289.731 C 345.034 288.650,345.839 287.165,346.346 286.430 C 346.853 285.695,347.204 285.030,347.126 284.951 C 347.048 284.873,346.497 285.554,345.901 286.465 M56.028 286.060 C 56.028 286.255,56.348 286.704,56.738 287.057 C 57.128 287.410,57.447 287.539,57.447 287.344 C 57.447 287.149,57.128 286.701,56.738 286.348 C 56.348 285.995,56.028 285.865,56.028 286.060 M57.475 288.020 C 57.422 288.499,58.672 290.957,59.478 291.960 C 59.921 292.511,60.284 292.843,60.284 292.697 C 60.284 292.551,60.023 292.144,59.705 291.793 C 59.387 291.441,58.761 290.391,58.315 289.460 C 57.868 288.528,57.490 287.880,57.475 288.020 M341.724 294.404 C 341.386 295.288,340.796 296.296,340.413 296.643 C 340.030 296.989,339.716 297.420,339.716 297.600 C 339.716 298.084,341.297 296.102,341.993 294.745 C 342.325 294.098,342.538 293.395,342.467 293.182 C 342.396 292.969,342.062 293.519,341.724 294.404 M60.298 293.569 C 60.280 294.187,61.744 296.809,62.108 296.809 C 62.259 296.809,62.565 297.416,62.787 298.159 C 63.010 298.901,63.503 299.899,63.883 300.375 C 64.530 301.186,64.527 301.151,63.847 299.828 C 63.448 299.051,63.121 298.234,63.121 298.014 C 63.121 297.794,62.784 297.185,62.372 296.662 C 61.961 296.139,61.329 295.120,60.968 294.398 C 60.607 293.676,60.306 293.303,60.298 293.569 M338.209 300.720 C 337.478 301.840,336.879 302.964,336.879 303.218 C 336.879 303.471,337.531 302.598,338.327 301.278 C 340.109 298.324,340.027 297.935,338.209 300.720 M65.307 302.981 C 65.738 303.868,66.150 304.535,66.222 304.463 C 66.436 304.250,65.355 301.881,64.922 301.613 C 64.703 301.478,64.876 302.093,65.307 302.981 M335.372 306.025 C 334.654 307.174,333.964 308.523,333.838 309.025 C 333.712 309.526,333.468 310.023,333.296 310.129 C 333.124 310.236,332.796 310.673,332.568 311.101 C 332.192 311.807,332.209 311.834,332.748 311.389 C 333.075 311.120,333.845 309.843,334.459 308.552 C 335.074 307.262,335.899 305.769,336.292 305.235 C 336.685 304.701,336.933 304.190,336.842 304.100 C 336.752 304.010,336.091 304.876,335.372 306.025 M67.730 307.281 C 67.730 307.762,68.824 310.018,68.981 309.861 C 69.178 309.664,68.177 307.092,67.903 307.092 C 67.808 307.092,67.730 307.177,67.730 307.281 M69.721 311.181 C 70.044 311.675,70.378 312.010,70.463 311.925 C 70.673 311.715,69.755 310.284,69.410 310.284 C 69.257 310.284,69.397 310.688,69.721 311.181 M331.452 313.302 C 331.128 313.983,331.004 314.539,331.177 314.539 C 331.489 314.539,332.378 312.402,332.157 312.181 C 332.094 312.118,331.777 312.622,331.452 313.302 M70.772 313.121 C 70.900 313.608,71.296 314.327,71.653 314.719 C 72.010 315.110,72.544 315.988,72.839 316.669 C 73.135 317.350,73.383 317.651,73.390 317.337 C 73.398 317.023,73.011 316.187,72.531 315.479 C 72.051 314.772,71.407 313.752,71.100 313.213 C 70.562 312.270,70.550 312.266,70.772 313.121 M329.939 315.769 C 329.624 316.250,329.421 316.788,329.488 316.963 C 329.555 317.139,329.869 316.745,330.186 316.088 C 330.863 314.683,330.748 314.534,329.939 315.769 M328.548 318.438 C 327.906 319.147,327.557 319.149,201.275 319.190 C 131.629 319.212,75.284 319.363,76.064 319.524 C 77.932 319.910,324.897 319.916,326.896 319.529 C 328.359 319.247,329.785 318.319,329.380 317.914 C 329.276 317.811,328.902 318.046,328.548 318.438 " stroke="none" fill="#767774" fill-rule="evenodd"></path></g></svg>